<?xml version="1.0" standalone="no"?>
<!DOCTYPE svg PUBLIC "-//W3C//DTD SVG 20010904//EN"
 "http://www.w3.org/TR/2001/REC-SVG-20010904/DTD/svg10.dtd">
<svg version="1.0" xmlns="http://www.w3.org/2000/svg"
 width="500.000000pt" height="500.000000pt" viewBox="0 0 500.000000 500.000000"
 preserveAspectRatio="xMidYMid meet">

<g transform="translate(0.000000,500.000000) scale(0.100000,-0.100000)"
fill="#000000" stroke="none">
<path d="M2890 4862 c-19 -2 -40 -8 -47 -14 -7 -5 -16 -7 -22 -4 -5 3 -33 -7
-62 -23 -30 -17 -75 -40 -101 -53 -28 -13 -48 -30 -48 -39 0 -9 -7 -22 -15
-29 -8 -7 -13 -16 -10 -20 3 -4 -2 -11 -10 -14 -11 -4 -14 -13 -9 -31 4 -16 0
-34 -10 -50 -16 -25 -21 -57 -10 -68 3 -3 8 -50 10 -104 3 -54 8 -112 13 -130
8 -27 6 -34 -12 -46 -19 -12 -20 -17 -8 -31 7 -9 20 -16 27 -16 8 0 14 -5 14
-10 0 -7 35 -8 100 -4 l100 7 -5 -34 c-4 -29 -1 -26 22 23 30 62 58 76 69 33
9 -36 30 -51 37 -26 3 11 -1 25 -9 32 -27 22 -14 27 24 7 26 -14 48 -17 77
-13 22 3 66 6 97 6 39 1 63 7 75 19 11 9 35 20 55 24 34 6 37 5 43 -23 9 -40
33 -60 49 -41 24 32 78 61 104 58 l27 -3 7 95 c12 144 9 219 -7 249 -8 14 -23
46 -34 71 -26 57 -57 93 -98 114 -18 9 -33 23 -33 31 0 9 -10 15 -25 15 -14 0
-25 4 -25 9 0 19 -69 31 -190 34 -69 2 -141 1 -160 -1z m202 -308 c46 -18 88
-58 88 -86 0 -9 7 -23 15 -32 8 -8 15 -27 15 -42 0 -14 9 -42 21 -60 l21 -34
-24 0 c-13 0 -58 7 -101 15 -109 21 -133 19 -202 -13 -66 -31 -82 -32 -169 -7
-54 15 -75 15 -130 -2 -18 -5 -19 -1 -13 61 12 129 60 173 219 200 117 19 209
19 260 0z m29 -261 c0 -5 2 -16 4 -25 3 -16 -5 -18 -57 -18 -43 0 -59 3 -56
13 7 21 107 48 109 30z m-406 -53 c8 -13 -8 -19 -61 -23 -23 -2 -46 -7 -53
-11 -7 -5 -11 0 -11 13 0 14 8 21 28 24 53 8 91 7 97 -3z"/>
<path d="M4671 4513 c-12 -13 -11 -20 7 -52 16 -27 28 -37 51 -39 25 -3 31 1
31 16 0 20 -39 62 -57 62 -7 0 -13 6 -15 14 -2 12 -5 12 -17 -1z"/>
<path d="M4861 4394 c-1 -12 5 -24 13 -27 18 -7 46 -64 46 -93 0 -13 5 -26 11
-30 6 -3 9 -17 6 -30 -3 -18 2 -25 26 -34 16 -5 32 -10 33 -10 2 0 4 34 4 75
0 72 -1 75 -23 75 -13 0 -32 9 -42 20 -10 11 -25 22 -35 25 -9 3 -22 15 -28
28 -11 22 -11 22 -11 1z"/>
<path d="M4730 4311 c0 -5 10 -13 23 -16 23 -7 87 -72 87 -90 1 -14 30 26 30
41 0 7 -28 27 -62 44 -67 32 -78 35 -78 21z"/>
<path d="M4600 4269 c0 -5 5 -7 10 -4 6 3 10 8 10 11 0 2 -4 4 -10 4 -5 0 -10
-5 -10 -11z"/>
<path d="M3375 4209 c-4 -6 -4 -13 0 -17 3 -3 10 0 14 7 7 10 13 10 29 2 28
-15 32 -14 26 4 -7 17 -59 20 -69 4z"/>
<path d="M3018 4183 c12 -2 32 -2 45 0 12 2 2 4 -23 4 -25 0 -35 -2 -22 -4z"/>
<path d="M0 4083 c0 -79 1 -83 23 -83 33 -1 59 -24 50 -46 -7 -18 -6 -18 11
-2 9 10 25 22 34 27 14 8 15 12 5 22 -16 16 -16 44 0 70 10 17 9 23 -8 37 -11
9 -20 25 -20 36 0 15 -9 18 -47 20 l-48 2 0 -83z"/>
<path d="M2690 4160 c-14 -4 -18 -9 -10 -10 23 -4 54 1 70 11 19 11 -24 11
-60 -1z"/>
<path d="M3362 4143 c2 -20 8 -27 20 -25 9 1 19 -5 21 -15 4 -15 5 -15 6 2 1
23 -25 65 -40 65 -6 0 -9 -12 -7 -27z"/>
<path d="M4853 4127 c3 -20 1 -39 -6 -46 -8 -8 -4 -11 17 -11 26 0 27 -2 21
-32 -7 -28 -5 -30 11 -23 11 5 29 8 42 8 16 -1 22 5 22 21 -1 27 -26 59 -74
91 l-39 26 6 -34z"/>
<path d="M4500 4120 c0 -11 5 -20 10 -20 6 0 10 -12 10 -27 0 -20 7 -31 24
-39 23 -11 24 -9 30 28 7 43 2 58 -20 58 -8 0 -14 5 -14 10 0 6 -9 10 -20 10
-13 0 -20 -7 -20 -20z"/>
<path d="M2978 4113 c31 -12 92 -78 92 -99 0 -17 5 -22 25 -20 29 1 31 13 10
43 -19 27 -104 83 -124 82 -11 0 -12 -2 -3 -6z"/>
<path d="M2750 4100 c-8 -6 -31 -10 -50 -11 -24 -1 -28 -3 -12 -6 25 -5 29
-18 9 -30 -7 -4 -26 -27 -43 -50 -17 -24 -33 -40 -37 -37 -3 3 -3 -14 0 -38 6
-43 28 -96 57 -133 l15 -20 1 20 c0 11 -11 42 -24 68 -27 57 -25 102 5 86 11
-5 19 -15 19 -22 0 -16 54 -57 75 -57 8 0 15 9 15 19 0 12 10 23 28 29 30 10
146 9 208 -3 38 -7 43 -5 59 19 13 19 15 30 8 37 -8 8 -13 7 -17 0 -5 -7 -50
-11 -120 -11 -62 0 -138 -5 -167 -10 -40 -8 -60 -7 -76 1 -37 20 -30 38 53
132 18 22 15 30 -6 17z"/>
<path d="M4470 4090 c0 -5 -6 -10 -14 -10 -8 0 -14 -10 -15 -22 -2 -69 -13
-107 -31 -105 -10 1 -16 7 -13 14 8 21 -14 15 -37 -9 -26 -28 -28 -70 -2 -61
9 4 21 12 25 20 9 15 33 17 42 4 7 -13 -26 -76 -47 -90 -15 -9 -18 -8 -18 9 0
11 -4 20 -10 20 -13 0 -32 -38 -27 -53 3 -7 -13 -31 -35 -53 -35 -37 -39 -44
-28 -64 8 -16 15 -19 24 -11 10 8 24 7 51 -5 20 -8 44 -13 51 -10 19 7 19 -38
0 -54 -8 -6 -12 -18 -9 -26 3 -8 -1 -14 -9 -14 -22 0 -76 -52 -60 -58 7 -2 21
3 30 11 9 9 29 19 44 22 38 10 46 -15 19 -54 -26 -36 -27 -67 -2 -81 35 -18
53 -13 45 13 -13 38 -10 62 6 58 8 -2 30 -3 48 -3 37 2 41 -9 11 -37 -13 -12
-19 -26 -15 -38 6 -19 -25 -63 -44 -63 -13 0 -10 -89 2 -96 5 -3 18 2 29 12
17 15 23 15 47 4 15 -8 40 -14 55 -16 28 -2 60 -31 50 -46 -2 -5 -2 -17 2 -28
7 -23 35 -16 35 9 0 9 11 28 25 43 15 17 25 39 25 58 0 20 6 32 18 36 36 11
47 23 44 45 -1 13 -8 27 -15 31 -7 4 7 8 31 8 39 0 42 2 32 20 -7 14 -7 33 1
67 15 59 15 59 35 42 14 -11 19 -10 34 9 10 12 25 22 34 22 24 0 19 37 -10 76
-22 28 -33 34 -64 34 -50 0 -70 8 -70 29 0 17 -18 41 -31 41 -4 0 -9 -9 -12
-20 -3 -12 -11 -18 -19 -15 -7 3 -22 -1 -33 -9 -18 -13 -18 -14 4 -21 13 -4
28 -2 33 3 7 7 24 -3 54 -31 36 -35 44 -48 44 -78 0 -29 -5 -38 -21 -42 -11
-3 -23 -15 -26 -26 -6 -25 -25 -27 -43 -6 -20 25 -41 19 -34 -9 8 -33 -5 -55
-20 -34 -6 8 -19 17 -30 21 -16 6 -17 15 -11 80 4 39 11 77 16 83 13 16 0 24
-38 24 -18 0 -33 5 -33 10 0 6 14 36 32 67 l32 56 -37 29 c-41 33 -45 52 -21
86 9 13 14 24 13 26 -23 14 -59 23 -64 16 -4 -6 -12 -10 -20 -10 -12 0 -22 30
-28 90 -1 8 -7 21 -14 28 -7 7 -10 19 -7 27 4 8 3 15 0 15 -3 0 -6 -4 -6 -10z
m54 -305 c3 -9 -6 -25 -22 -40 -25 -23 -28 -24 -40 -8 -16 22 -11 35 19 50 31
16 36 16 43 -2z m-214 -69 c0 -3 -4 -8 -10 -11 -5 -3 -10 -1 -10 4 0 6 5 11
10 11 6 0 10 -2 10 -4z m310 -196 c-19 -12 -60 -13 -60 -1 0 14 53 30 65 19 6
-6 5 -12 -5 -18z"/>
<path d="M2987 4063 c-4 -3 -49 -7 -100 -8 -95 -2 -147 -11 -147 -26 0 -15 58
-39 95 -39 56 0 181 57 164 75 -3 3 -9 2 -12 -2z"/>
<path d="M4313 4033 c-7 -3 -13 -10 -13 -18 0 -16 27 -39 33 -28 8 15 -8 50
-20 46z"/>
<path d="M3392 3977 c-6 -7 -7 -18 -3 -26 7 -10 10 -8 16 8 8 27 2 36 -13 18z"/>
<path d="M3308 3949 c-21 -12 -24 -39 -5 -39 18 0 49 34 40 43 -8 9 -15 8 -35
-4z"/>
<path d="M4237 3953 c-11 -10 -8 -43 3 -43 6 0 10 11 10 25 0 26 -2 29 -13 18z"/>
<path d="M4786 3845 c-10 -16 -26 -25 -41 -25 -37 0 -31 -25 7 -28 34 -3 68
-27 68 -49 0 -7 10 -13 22 -13 17 0 19 3 10 12 -7 7 -12 29 -12 51 0 39 -14
77 -29 77 -5 0 -16 -11 -25 -25z"/>
<path d="M4936 3862 c-10 -10 -6 -41 6 -48 10 -6 38 20 38 37 0 9 -37 18 -44
11z"/>
<path d="M2803 3843 c-57 -4 -77 -13 -55 -27 12 -7 165 13 176 24 7 7 -1 9
-24 8 -19 -1 -63 -3 -97 -5z"/>
<path d="M3225 3843 c-11 -3 -39 -18 -62 -34 -23 -16 -48 -29 -56 -29 -7 0
-42 -12 -78 -26 -40 -16 -90 -28 -134 -31 -99 -6 -114 -5 -147 12 -50 24 -28
-6 34 -48 40 -26 62 -50 77 -82 39 -82 111 -267 111 -284 0 -18 37 -154 52
-191 10 -24 11 -24 18 -5 4 11 6 23 4 27 -3 4 0 9 6 13 5 3 10 15 10 26 0 10
5 20 10 20 6 1 14 2 19 3 12 1 84 103 111 157 11 21 17 39 13 38 -34 -6 -44
22 -22 63 15 29 23 129 8 108 -8 -12 -9 -9 -4 10 3 14 7 31 7 38 1 6 6 12 11
12 6 0 7 17 3 41 -4 23 -3 46 2 53 5 6 12 20 15 31 3 11 10 35 15 53 6 17 8
31 4 31 -4 -1 -16 -4 -27 -6z"/>
<path d="M170 3792 c0 -6 -3 -17 -6 -25 -3 -8 4 -24 16 -35 l21 -19 -23 -36
c-24 -38 -62 -49 -86 -25 -20 20 -14 38 13 38 14 0 25 3 25 8 -1 14 -60 72
-74 72 -21 0 -30 -19 -16 -35 18 -22 5 -48 -20 -40 -20 6 -20 2 -20 -399 l0
-406 29 0 c38 0 47 15 27 45 -13 20 -13 25 -1 35 16 13 54 4 56 -13 1 -7 1
-23 0 -37 0 -15 13 -40 33 -64 29 -33 36 -37 54 -27 26 14 107 14 133 0 33
-17 79 9 79 46 0 16 9 50 20 74 20 43 21 44 61 38 49 -6 74 2 109 34 20 19 37
24 79 24 64 0 101 27 101 73 0 27 -3 29 -37 28 -29 -1 -39 4 -49 23 -13 25
-73 58 -139 76 -44 12 -63 45 -26 45 12 0 21 6 21 15 0 21 32 55 52 55 9 0 19
-9 23 -19 3 -10 15 -21 27 -24 15 -4 19 -11 16 -25 -4 -12 5 -32 22 -52 25
-29 28 -30 43 -15 10 9 17 21 17 26 0 5 11 9 25 9 15 0 25 -6 25 -14 0 -8 13
-24 30 -36 31 -22 70 -34 70 -21 0 11 -45 51 -57 51 -26 0 -44 32 -37 64 6 27
5 29 -9 17 -21 -17 -57 -5 -57 19 0 24 28 40 60 33 14 -2 34 2 45 10 18 14 18
18 5 41 -10 20 -11 29 -2 38 7 7 12 30 12 53 0 23 4 45 9 50 5 6 12 25 16 43
6 31 6 33 -13 23 -10 -5 -35 -8 -54 -5 l-35 6 3 -38 c1 -22 5 -49 9 -61 9 -30
-18 -32 -38 -3 -15 21 -95 44 -112 31 -21 -17 -60 -20 -79 -5 -24 17 -45 19
-28 2 7 -7 12 -27 12 -45 0 -32 -1 -33 -40 -33 -38 0 -40 -1 -40 -32 0 -21 3
-28 8 -20 11 17 82 29 82 13 0 -6 6 -11 14 -11 19 0 28 -14 20 -34 -4 -11 -16
-14 -37 -12 -18 2 -45 4 -60 5 -19 1 -26 5 -21 13 4 6 -3 4 -16 -5 -37 -26
-59 -7 -55 45 2 24 4 43 5 43 1 0 3 29 4 65 3 69 -5 90 -34 90 -13 0 -21 13
-30 50 -11 44 -15 50 -38 50 -14 0 -40 11 -57 24 -36 28 -85 44 -85 28z m-20
-256 c0 -22 -19 -30 -35 -16 -22 18 -18 30 10 30 15 0 25 -6 25 -14z m647 -98
c-21 -14 -46 -8 -57 12 -9 17 -7 22 12 29 18 7 27 5 40 -12 12 -16 14 -24 5
-29z m-334 -163 c1 -5 -6 -11 -15 -13 -11 -2 -18 3 -18 13 0 17 30 18 33 0z
m227 -155 c30 0 49 -34 24 -44 -21 -8 -75 5 -96 23 -17 15 -17 16 -1 23 10 3
24 5 31 2 8 -2 26 -4 42 -4z m-362 -78 c2 -7 -3 -12 -10 -12 -8 0 -15 7 -15
15 0 18 19 15 25 -3z m232 -2 c0 -5 -2 -10 -4 -10 -3 0 -8 5 -11 10 -3 6 -1
10 4 10 6 0 11 -4 11 -10z"/>
<path d="M4975 3750 c-17 -19 -15 -50 4 -50 10 0 26 58 19 66 -3 2 -13 -5 -23
-16z"/>
<path d="M4194 3405 c-7 -17 2 -45 13 -45 4 0 14 4 21 9 12 7 12 12 1 30 -16
25 -27 27 -35 6z"/>
<path d="M4296 3404 c-9 -22 3 -32 14 -14 12 19 12 30 1 30 -5 0 -12 -7 -15
-16z"/>
<path d="M4983 3404 c-3 -8 -1 -20 6 -27 8 -8 11 -4 11 16 0 30 -7 35 -17 11z"/>
<path d="M4330 3350 c0 -12 9 -30 19 -42 l20 -21 7 27 c7 28 -9 56 -32 56 -8
0 -14 -9 -14 -20z"/>
<path d="M912 3336 c1 -10 8 -17 13 -17 15 1 12 24 -3 29 -9 3 -13 -2 -10 -12z"/>
<path d="M4980 3332 c0 -5 -15 -15 -34 -24 -31 -15 -34 -15 -49 3 -9 10 -26
19 -37 19 -21 0 -90 -61 -90 -79 0 -22 33 -41 71 -41 37 0 40 2 34 21 -11 35
14 40 62 13 24 -13 48 -24 53 -24 6 0 10 27 10 60 0 33 -4 60 -10 60 -5 0 -10
-4 -10 -8z"/>
<path d="M4282 3316 c7 -8 15 -12 17 -11 5 6 -10 25 -20 25 -5 0 -4 -6 3 -14z"/>
<path d="M4231 3264 c0 -11 3 -14 6 -6 3 7 2 16 -1 19 -3 4 -6 -2 -5 -13z"/>
<path d="M4211 3214 c0 -11 3 -14 6 -6 3 7 2 16 -1 19 -3 4 -6 -2 -5 -13z"/>
<path d="M3190 3159 c-19 -17 -62 -43 -96 -59 -73 -35 -106 -67 -84 -80 11 -7
17 -4 21 8 5 15 7 14 19 -4 11 -17 19 -20 44 -14 52 13 60 19 78 58 9 20 26
56 37 80 11 23 19 42 18 42 -1 -1 -18 -14 -37 -31z"/>
<path d="M4782 3159 c3 -24 33 -48 44 -36 8 8 -23 57 -37 57 -6 0 -9 -10 -7
-21z"/>
<path d="M4974 3120 c-12 -5 -28 -22 -35 -39 -8 -17 -17 -31 -22 -31 -4 0 -12
-11 -17 -25 -11 -29 -20 -30 -80 -9 -41 14 -45 14 -57 -3 -7 -10 -17 -23 -23
-30 -5 -7 -10 -19 -10 -28 0 -9 -9 -15 -21 -15 -16 0 -19 4 -14 18 4 9 9 31
12 48 3 20 14 37 29 45 30 16 30 22 0 38 -29 16 -46 8 -46 -24 0 -26 -29 -42
-42 -23 -4 7 -5 20 -2 28 3 8 -10 -1 -28 -21 -43 -47 -44 -54 -5 -55 17 -1 36
-2 41 -3 14 -2 -15 -32 -56 -57 -21 -14 -38 -31 -38 -39 0 -10 -11 -15 -34
-15 -28 0 -35 -4 -38 -21 -4 -27 -30 -44 -52 -36 -13 5 -14 11 -4 32 6 14 17
25 23 25 14 0 27 37 16 44 -4 3 -25 0 -47 -6 -21 -5 -59 -12 -84 -15 -25 -2
-52 -7 -60 -10 -8 -3 -18 -5 -22 -5 -11 3 -9 -68 2 -93 5 -11 9 -15 9 -9 1 6
16 19 34 29 25 13 38 15 52 8 17 -10 17 -11 -3 -22 -41 -22 -52 -40 -40 -66 8
-18 8 -28 -1 -39 -9 -11 -6 -20 14 -44 14 -16 25 -34 25 -40 0 -6 9 -8 19 -5
10 3 30 -3 44 -12 36 -23 67 -12 67 25 0 43 -16 77 -39 85 -33 10 -27 48 10
64 25 11 33 11 47 0 51 -41 82 -45 82 -11 0 10 8 22 18 28 14 9 23 8 40 -7 13
-10 23 -20 22 -23 -1 -25 5 -22 44 18 24 25 50 46 58 46 18 0 54 -38 45 -47
-4 -3 -7 -3 -7 1 0 4 -7 1 -15 -8 -8 -8 -15 -19 -15 -24 0 -20 25 -18 41 2 15
18 20 19 43 8 15 -7 46 -12 70 -12 42 0 42 1 38 31 -4 24 0 31 17 36 20 5 21
11 21 164 0 88 -1 159 -2 158 -2 0 -13 -4 -24 -9z m16 -236 c0 -28 -12 -31
-34 -8 -19 19 -21 41 -3 47 18 7 37 -13 37 -39z"/>
<path d="M4177 3022 c7 -18 22 -32 36 -32 5 0 5 5 1 12 -4 6 -3 8 4 4 6 -3 13
-2 16 3 5 8 -11 16 -51 26 -7 2 -9 -3 -6 -13z"/>
<path d="M4257 2963 c-14 -13 -6 -23 18 -23 13 0 28 -7 33 -16 6 -11 11 -13
16 -5 9 13 -2 33 -14 26 -4 -3 -10 2 -14 10 -6 15 -28 20 -39 8z"/>
<path d="M4210 2934 c0 -20 27 -37 36 -23 4 7 3 9 -4 5 -6 -3 -15 2 -21 11 -6
10 -11 13 -11 7z"/>
<path d="M46 2827 c-17 -12 -17 -15 -2 -29 20 -21 20 -37 0 -76 -13 -27 -13
-34 -2 -44 29 -27 84 -50 132 -55 63 -8 86 -27 63 -50 -14 -14 -22 -15 -58 -4
-34 10 -47 10 -66 0 -14 -7 -21 -19 -18 -27 18 -48 17 -63 -4 -69 -50 -13 -6
-52 59 -53 49 0 70 -13 70 -42 0 -10 5 -18 11 -18 7 0 9 16 4 51 -6 45 -5 51
13 56 12 3 22 15 24 28 3 23 4 23 43 9 22 -7 56 -15 75 -16 33 -3 35 -1 33 25
-2 26 0 28 30 25 26 -2 33 1 35 17 2 16 -6 23 -40 32 -24 7 -64 11 -89 10 -41
-1 -45 -4 -41 -23 6 -31 -16 -40 -40 -16 -23 23 -18 58 7 48 11 -4 15 1 15 17
-1 28 -18 49 -52 64 -21 10 -28 20 -28 42 0 34 -27 62 -40 42 -9 -16 -30 -6
-30 15 0 22 -37 54 -63 54 -13 0 -31 -6 -41 -13z"/>
<path d="M3436 2795 c3 -16 14 -48 23 -70 10 -22 16 -57 15 -79 -2 -41 20
-106 36 -106 6 0 10 20 10 44 0 25 5 48 10 51 15 9 12 25 -5 25 -8 0 -15 -6
-15 -12 0 -10 -2 -10 -8 0 -5 7 -9 35 -11 63 -2 41 -8 57 -32 83 l-30 31 7
-30z"/>
<path d="M683 2790 c-36 -21 -43 -54 -23 -106 6 -15 8 -40 5 -56 -6 -25 -11
-28 -46 -28 -40 0 -48 -7 -28 -27 7 -7 2 -17 -19 -32 -17 -11 -36 -21 -44 -21
-14 0 -74 -48 -67 -53 63 -50 81 -59 123 -59 25 0 54 3 64 6 26 9 63 -23 65
-56 1 -14 6 -24 10 -21 5 3 23 5 41 5 52 0 59 9 41 51 -8 20 -22 37 -30 37
-22 0 -34 30 -24 64 5 17 9 49 9 72 0 25 6 47 15 54 10 8 15 30 15 60 0 40 4
52 26 69 24 19 24 20 6 30 -13 7 -22 7 -30 -1 -9 -9 -12 -7 -12 10 0 18 -6 22
-32 22 -18 0 -48 -9 -65 -20z m19 -245 c-3 -17 0 -25 9 -26 8 0 3 -4 -9 -10
-19 -7 -27 -5 -43 13 -25 31 -24 57 4 67 28 11 46 -9 39 -44z"/>
<path d="M4270 2760 c0 -5 -9 -10 -20 -10 -14 0 -20 -7 -20 -23 0 -19 5 -24
28 -24 26 0 28 4 28 34 -1 18 -4 33 -8 33 -5 0 -8 -4 -8 -10z"/>
<path d="M562 2728 c5 -15 28 -18 29 -3 0 6 -7 12 -17 13 -10 3 -15 -1 -12
-10z"/>
<path d="M545 2670 c-7 -12 2 -30 16 -30 12 0 12 27 0 35 -5 3 -12 1 -16 -5z"/>
<path d="M838 2639 c-13 -7 -14 -16 -7 -46 12 -55 11 -83 -5 -83 -18 0 -41
-26 -23 -28 6 0 21 -3 33 -7 13 -4 27 -1 37 9 8 9 20 16 25 16 5 0 17 9 27 20
17 19 17 21 -6 66 -25 49 -54 68 -81 53z"/>
<path d="M7 2634 c-10 -11 -9 -74 2 -74 16 0 33 29 29 51 -3 23 -19 35 -31 23z"/>
<path d="M1039 2545 c-25 -14 -79 -85 -79 -105 0 -19 48 -22 79 -4 39 23 69
87 51 109 -15 18 -18 18 -51 0z"/>
<path d="M4501 2516 c-6 -7 -9 -20 -6 -27 5 -13 81 -59 96 -59 9 0 -2 63 -13
77 -6 7 -14 11 -18 8 -5 -3 -11 -1 -15 5 -9 14 -31 12 -44 -4z"/>
<path d="M3509 2498 c-1 -16 -2 -34 -3 -40 -1 -7 7 -14 17 -16 22 -4 23 36 2
64 -14 18 -14 18 -16 -8z"/>
<path d="M4236 2498 c-8 -32 -7 -38 5 -38 14 0 38 30 39 48 0 22 -37 13 -44
-10z"/>
<path d="M0 2491 c0 -14 5 -19 15 -14 17 6 15 25 -3 31 -7 2 -12 -5 -12 -17z"/>
<path d="M2295 2500 c-11 -3 -51 -21 -90 -41 -38 -20 -83 -39 -100 -43 -16 -4
-66 -23 -110 -41 -44 -18 -120 -46 -170 -63 -49 -16 -209 -70 -355 -120 -146
-51 -273 -92 -282 -92 -21 0 -328 -102 -515 -171 -76 -28 -257 -93 -403 -143
l-265 -92 -3 -147 c-2 -138 -1 -147 18 -159 26 -16 26 -31 0 -23 -18 6 -20 2
-20 -34 0 -28 4 -41 14 -41 7 0 19 -7 26 -15 7 -8 27 -15 46 -15 41 0 51 -15
28 -41 -18 -20 -50 -26 -56 -10 -2 5 -15 7 -30 4 l-26 -5 -1 -130 c-2 -122 -1
-130 16 -123 55 22 66 16 39 -21 -12 -15 -17 -17 -27 -7 -23 23 -29 14 -29
-39 1 -46 2 -51 14 -36 14 18 26 14 26 -9 0 -7 -6 -13 -14 -13 -22 0 -26 -23
-26 -136 0 -92 2 -105 16 -102 10 2 19 -3 22 -11 3 -9 -1 -11 -17 -6 -24 7
-29 -12 -8 -34 9 -11 9 -14 0 -18 -9 -3 -13 -27 -13 -69 l0 -64 40 0 c22 0 40
5 40 10 0 6 8 10 18 10 14 0 15 2 2 10 -11 7 -2 10 33 10 33 0 46 4 41 11 -4
8 1 9 17 4 32 -10 49 -24 49 -41 0 -10 16 -14 60 -14 33 0 60 -4 60 -8 0 -7
-20 -8 -123 -4 -20 1 -45 10 -55 20 -13 13 -26 16 -50 11 -48 -10 -51 -19 -6
-20 21 0 33 -3 27 -6 -22 -8 -14 -21 15 -26 15 -2 -3 -5 -40 -6 -37 0 -70 -6
-73 -11 -3 -6 -17 -7 -31 -4 l-24 6 0 -86 c0 -82 1 -86 24 -92 31 -8 58 -2 63
13 3 7 -13 16 -39 21 l-43 10 37 1 c28 1 41 -4 50 -19 15 -24 46 -26 55 -4 3
8 17 20 31 25 21 8 29 6 42 -9 8 -11 24 -22 34 -26 33 -11 8 -20 -66 -23 -39
-2 -76 -7 -83 -13 -7 -5 -33 -13 -59 -16 -46 -7 -46 -7 -46 -45 0 -30 4 -39
18 -39 16 -1 16 -1 -1 -14 -9 -7 -17 -16 -17 -20 0 -4 216 -6 480 -5 l480 2
-30 34 c-31 35 -37 57 -20 68 5 3 10 12 10 20 0 10 -16 14 -63 14 -168 0 -359
11 -375 21 -16 11 -16 11 0 6 10 -3 34 1 55 8 38 14 38 14 13 24 -20 9 -21 11
-6 11 11 1 27 -5 35 -13 25 -21 87 -27 102 -10 13 15 55 19 63 5 3 -4 42 -9
87 -9 75 -1 80 0 68 16 -13 15 -12 16 4 3 10 -8 16 -20 13 -28 -3 -7 -1 -13 5
-13 14 0 30 47 35 103 l4 47 -33 0 c-17 0 -38 4 -46 9 -9 6 -21 5 -32 -2 -14
-9 -21 -9 -31 1 -18 18 -8 21 68 26 38 2 75 4 82 5 6 1 12 10 12 21 0 19 -4
20 -61 14 -43 -4 -59 -3 -55 5 4 6 29 11 56 11 27 0 52 5 55 10 4 6 -12 10
-41 10 -40 0 -45 2 -34 15 17 21 56 19 79 -4 19 -19 20 -19 35 20 9 22 16 52
16 67 0 15 5 44 11 66 13 49 4 59 -55 59 -53 0 -59 9 -17 27 21 8 35 9 49 1
12 -6 23 -11 25 -11 3 0 8 33 12 74 3 41 18 109 31 152 14 44 29 126 34 184 5
58 14 141 19 185 6 49 6 84 0 90 -12 12 -12 45 1 45 6 0 10 18 10 39 0 31 -4
41 -20 46 -23 7 -27 35 -5 35 9 0 19 8 22 18 4 9 9 19 13 22 3 3 19 41 34 85
33 94 71 152 124 191 22 16 40 34 41 39 1 6 10 9 19 7 15 -3 15 -2 -1 10 -20
15 -14 48 8 48 16 0 37 -25 28 -33 -3 -4 1 -7 10 -7 20 0 51 45 42 60 -4 6 -1
9 6 8 7 -2 23 13 36 32 29 42 91 77 155 86 26 3 49 13 52 20 3 8 10 14 17 14
6 0 23 9 39 20 15 11 30 17 33 14 10 -10 -5 -43 -22 -47 -9 -3 13 -5 49 -6 40
-1 71 4 78 11 7 7 12 8 12 2 0 -5 4 -3 9 5 6 9 5 21 -2 33 -10 16 -9 21 6 29
9 6 17 17 17 24 0 18 14 19 40 3 16 -10 24 -10 38 0 9 7 32 19 50 27 20 10 32
22 32 35 0 27 -36 27 -43 0 -3 -14 -14 -20 -31 -20 -14 0 -26 4 -26 8 0 14 24
32 42 32 10 0 21 7 24 15 9 22 48 18 69 -5 27 -30 66 -23 84 14 12 26 12 31
-3 41 -9 7 -16 17 -16 22 0 18 78 73 103 73 25 0 37 16 37 50 0 19 -15 22 -55
10z m-425 -333 c0 -21 -12 -28 -27 -16 -19 16 -16 29 7 29 11 0 20 -6 20 -13z
m-550 -277 c0 -15 -38 -32 -45 -20 -3 5 -3 15 0 20 8 13 45 13 45 0z m-117
-57 c-13 -8 -23 -22 -23 -29 0 -8 -10 -14 -24 -14 -40 0 -41 -20 -2 -54 40
-37 46 -56 16 -56 -13 0 -20 7 -20 20 0 13 -7 20 -20 20 -15 0 -20 7 -20 25 0
20 -5 25 -26 25 -34 0 -29 34 6 38 14 2 32 10 40 17 20 17 40 23 70 24 l25 0
-22 -16z m37 -62 c0 -6 -10 -8 -21 -6 -33 6 -36 15 -6 15 15 0 27 -4 27 -9z
m-206 -19 c-6 -4 -15 -16 -21 -26 -8 -15 -23 -20 -61 -21 -28 -1 -49 2 -46 7
3 4 11 8 19 8 7 0 17 9 20 20 5 16 15 20 53 20 26 0 42 -4 36 -8z m61 -73 c4
-6 5 -12 2 -15 -7 -7 -37 7 -37 17 0 13 27 11 35 -2z m-215 -13 c0 -8 3 -21 6
-30 5 -14 3 -14 -25 0 -31 15 -37 25 -24 37 12 13 43 7 43 -7z m-340 -6 c0 -5
-9 -10 -20 -10 -11 0 -20 5 -20 10 0 6 9 10 20 10 11 0 20 -4 20 -10z m265
-10 c3 -5 2 -10 -3 -10 -5 0 -8 -10 -8 -22 1 -18 -4 -22 -23 -20 -24 2 -51
-13 -51 -29 0 -5 9 -9 20 -9 24 0 28 -35 5 -44 -24 -9 -46 4 -40 24 7 22 -33
36 -42 14 -6 -15 -33 -19 -33 -5 0 5 -10 11 -22 13 -42 6 -30 26 19 33 26 3
56 10 65 16 10 5 27 9 38 9 11 0 25 9 32 20 14 22 33 26 43 10z m-425 -64 c0
-11 -19 -15 -25 -6 -3 5 1 10 9 10 9 0 16 -2 16 -4z m740 -16 c0 -20 -19 -25
-79 -20 -16 1 -31 -8 -46 -26 -16 -20 -30 -27 -55 -26 -42 1 -59 16 -44 40 11
17 30 20 142 23 28 1 42 6 42 15 0 8 9 14 20 14 13 0 20 -7 20 -20z m-535 -70
c-19 -21 -35 -18 -35 6 0 9 10 14 27 14 25 0 26 -1 8 -20z m225 10 c0 -5 -9
-10 -20 -10 -11 0 -20 5 -20 10 0 6 9 10 20 10 11 0 20 -4 20 -10z m-645 -10
c3 -5 -1 -10 -10 -10 -9 0 -13 5 -10 10 3 6 8 10 10 10 2 0 7 -4 10 -10z m875
-5 c0 -13 -4 -14 -20 -5 -11 6 -20 13 -20 15 0 3 9 5 20 5 11 0 20 -7 20 -15z
m-515 -5 c13 -6 15 -9 5 -9 -8 0 -22 4 -30 9 -18 12 -2 12 25 0z m365 0 c0 -5
-4 -10 -9 -10 -6 0 -13 5 -16 10 -3 6 1 10 9 10 9 0 16 -4 16 -10z m-640 -20
c0 -5 -4 -10 -9 -10 -6 0 -13 5 -16 10 -3 6 1 10 9 10 9 0 16 -4 16 -10z m805
-16 c30 -20 35 -64 6 -64 -10 0 -36 12 -57 26 -49 33 -47 31 -39 43 9 16 62
13 90 -5z m-482 -9 c32 -1 63 -7 70 -14 8 -8 8 -11 -1 -11 -7 0 -12 -9 -12
-19 0 -35 -119 -40 -143 -7 -14 19 -43 19 -122 1 -29 -7 -29 -7 -10 9 15 13
17 19 6 23 -27 11 12 22 60 16 30 -4 49 -1 54 6 4 7 14 9 24 5 9 -4 42 -8 74
-9z m263 5 c8 0 14 -3 14 -8 0 -4 -20 -6 -45 -4 -25 2 -45 9 -45 14 0 6 13 8
31 4 17 -3 38 -6 45 -6z m-531 -60 c-3 -5 -15 -10 -25 -10 -10 0 -22 -4 -25
-10 -3 -5 -11 -10 -17 -10 -6 0 -3 9 8 19 19 20 70 29 59 11z m651 -11 c3 -6
1 -16 -5 -22 -6 -6 -11 -19 -11 -29 0 -19 -32 -24 -64 -12 -22 8 -20 23 6 51
23 24 62 31 74 12z m-491 -9 c4 -6 -9 -26 -27 -46 -25 -27 -38 -33 -56 -29
-13 3 -30 1 -38 -6 -16 -13 -64 2 -64 20 0 6 -6 8 -13 5 -7 -2 -24 -1 -37 4
-19 7 -5 10 59 14 45 3 86 9 89 14 8 11 52 32 69 33 6 1 15 -4 18 -9z m260
-20 c4 -6 -7 -10 -27 -9 -27 0 -30 2 -13 9 27 12 33 12 40 0z m84 -11 c-15 -9
-32 -2 -24 11 3 5 13 6 21 3 12 -4 13 -8 3 -14z m311 1 c0 -5 -4 -10 -9 -10
-6 0 -13 5 -16 10 -3 6 1 10 9 10 9 0 16 -4 16 -10z m-575 -10 c3 -5 -3 -10
-14 -10 -12 0 -21 5 -21 10 0 6 6 10 14 10 8 0 18 -4 21 -10z m223 -12 c-3 -7
-11 -13 -18 -13 -7 0 -15 6 -17 13 -3 7 4 12 17 12 13 0 20 -5 18 -12z m-593
-8 c3 -5 21 -10 39 -10 22 0 40 -8 56 -25 13 -14 32 -25 42 -25 20 0 24 -15 7
-25 -7 -5 -5 -13 6 -25 9 -10 13 -20 8 -23 -12 -8 -103 33 -104 47 0 6 -14 22
-31 36 -24 18 -46 25 -95 28 -34 3 -60 8 -57 13 3 5 20 7 39 3 19 -3 35 -1 39
5 9 14 43 14 51 1z m465 0 c8 -5 19 -5 25 0 17 14 48 2 68 -26 16 -21 16 -28
6 -41 -11 -13 -10 -18 10 -34 18 -15 19 -19 7 -19 -9 0 -16 5 -16 10 0 6 -13
10 -28 10 -23 0 -28 5 -30 27 -1 15 -11 36 -21 46 -18 18 -19 18 -39 -11 l-21
-29 25 -12 c36 -16 28 -45 -14 -49 -22 -2 -34 2 -38 13 -5 12 -14 14 -35 10
-16 -4 -43 -4 -60 0 -30 7 -30 7 -11 25 11 11 32 18 47 17 16 -1 30 4 33 12 4
11 -2 13 -26 8 -25 -5 -34 -2 -42 13 -9 17 -8 20 9 20 11 0 32 -5 48 -11 24
-9 30 -7 42 10 14 22 37 26 61 11z m307 -36 c8 -20 -16 -35 -42 -28 -30 10
-32 14 -11 30 26 18 45 18 53 -2z m-68 -36 c9 -15 13 -30 9 -33 -11 -12 -61 8
-65 26 -3 11 -12 19 -19 19 -8 0 -14 5 -14 11 0 6 16 9 37 7 28 -2 41 -9 52
-30z m-487 -63 c-16 -25 -8 -45 17 -45 14 0 35 -7 45 -15 11 -8 28 -13 38 -9
16 5 31 -1 68 -25 12 -8 10 -15 -15 -41 -25 -26 -28 -33 -17 -50 8 -13 8 -20
2 -20 -6 0 -13 7 -16 15 -4 8 -11 15 -16 15 -5 0 -18 10 -29 23 -10 12 -18 17
-19 11 0 -22 -66 -23 -109 -2 -46 23 -53 38 -17 38 13 0 28 6 34 13 12 14 11
81 0 93 -4 4 -3 15 3 26 10 19 11 19 24 1 7 -10 10 -22 7 -28z m616 33 c-3 -7
-11 -13 -18 -13 -7 0 -15 6 -17 13 -3 7 4 12 17 12 13 0 20 -5 18 -12z m-420
-52 c15 -7 51 -12 80 -11 34 1 51 -2 49 -9 -5 -15 -52 -19 -75 -7 -15 8 -23 7
-32 -4 -17 -20 -61 -20 -54 0 5 12 -4 15 -47 15 -73 0 -46 23 34 29 10 0 30
-5 45 -13z m383 -4 c13 -10 32 -22 42 -25 10 -4 16 -11 13 -16 -8 -12 -90 -8
-107 5 -34 27 -60 36 -74 24 -15 -12 -55 -5 -55 10 0 12 27 18 96 19 45 1 68
-4 85 -17z m-791 -16 c0 -3 -4 -8 -10 -11 -5 -3 -10 -1 -10 4 0 6 5 11 10 11
6 0 10 -2 10 -4z m930 -16 c0 -5 -4 -10 -10 -10 -5 0 -10 5 -10 10 0 6 5 10
10 10 6 0 10 -4 10 -10z m-440 -55 c0 -8 -7 -15 -15 -15 -8 0 -15 7 -15 15 0
8 7 15 15 15 8 0 15 -7 15 -15z m379 -11 c2 -2 -12 -4 -32 -4 -20 0 -37 -3
-37 -8 0 -4 -40 -7 -90 -6 -98 1 -126 -7 -91 -25 40 -22 22 -32 -59 -30 -86 2
-101 13 -58 43 28 20 39 20 32 1 -7 -17 22 -21 45 -6 11 7 9 10 -8 16 -11 3
-21 11 -21 17 0 7 4 7 13 0 9 -8 27 -7 62 3 35 10 78 12 145 8 52 -3 97 -7 99
-9z m-985 -12 c14 19 58 14 77 -8 16 -19 43 -18 35 1 -3 9 0 15 9 15 19 0 19
-19 -1 -45 -20 -27 -109 -29 -128 -2 -7 9 -20 17 -29 17 -11 0 -13 6 -10 21 6
21 7 21 20 3 13 -17 15 -18 27 -2z m196 -66 c-8 -8 -13 -7 -20 4 -12 20 -1 33
16 19 11 -9 12 -15 4 -23z m830 19 c0 -8 -9 -15 -20 -15 -20 0 -26 11 -13 23
12 13 33 7 33 -8z m-845 -46 c11 -17 -1 -21 -36 -14 -23 5 -28 10 -18 16 19
12 46 11 54 -2z m83 -1 c20 -20 14 -28 -23 -28 -23 0 -35 5 -35 13 0 28 36 37
58 15z m107 -19 c10 -14 1 -21 -19 -13 -9 3 -13 10 -10 15 7 12 21 11 29 -2z
m25 -37 c0 -19 -23 -32 -37 -21 -20 17 -15 29 12 29 14 0 25 -4 25 -8z m254
-41 c3 -5 15 -7 26 -4 30 8 70 -5 70 -23 0 -15 -14 -15 -195 0 -22 2 -46 4
-52 5 -7 1 -13 8 -13 16 0 12 15 15 79 15 44 0 82 -4 85 -9z m306 -13 c0 -13
-23 -5 -28 10 -2 7 2 10 12 6 9 -3 16 -11 16 -16z m-895 -8 c3 -6 17 -7 30 -4
13 3 30 2 37 -2 7 -4 30 -7 51 -5 26 2 37 -1 33 -8 -4 -6 -23 -11 -42 -11 -19
0 -51 -7 -71 -15 -19 -8 -45 -15 -57 -15 -21 1 -21 1 -2 15 19 14 19 15 -6 15
-26 0 -53 22 -41 33 10 11 61 8 68 -3z m463 -72 c3 -25 2 -26 -37 -21 -32 4
-42 2 -47 -11 -6 -15 -8 -15 -21 4 -8 11 -11 25 -8 31 11 16 47 28 80 26 24
-2 31 -7 33 -29z m402 2 c0 -5 -4 -10 -10 -10 -5 0 -10 5 -10 10 0 6 5 10 10
10 6 0 10 -4 10 -10z m-760 -4 c0 -11 -19 -15 -25 -6 -3 5 1 10 9 10 9 0 16
-2 16 -4z m-195 -46 c3 -5 1 -10 -4 -10 -6 0 -11 5 -11 10 0 6 2 10 4 10 3 0
8 -4 11 -10z m345 -45 c0 -8 -4 -15 -10 -15 -5 0 -10 7 -10 15 0 8 5 15 10 15
6 0 10 -7 10 -15z m-50 -2 c0 -5 -11 -9 -25 -9 -14 -1 -22 2 -19 7 6 11 44 12
44 2z m560 -3 c9 -6 10 -10 3 -10 -7 0 -21 -10 -33 -22 -15 -17 -23 -19 -32
-10 -9 9 -6 16 12 32 26 23 29 23 50 10z m-230 -50 c0 -5 -8 -10 -17 -10 -15
0 -16 2 -3 10 19 12 20 12 20 0z m-114 -12 c3 -4 4 -8 2 -9 -42 -8 -98 -9 -98
-1 0 6 6 13 13 15 19 8 77 5 83 -5z m114 -57 c22 -6 23 -8 7 -14 -10 -4 -30 0
-45 8 -22 12 -24 14 -7 14 11 -1 31 -4 45 -8z m205 -11 c4 -6 -10 -10 -35 -10
-25 0 -39 4 -35 10 3 6 19 10 35 10 16 0 32 -4 35 -10z m-590 -100 c3 -5 1
-10 -4 -10 -6 0 -11 5 -11 10 0 6 2 10 4 10 3 0 8 -4 11 -10z m70 0 c3 -5 -1
-10 -9 -10 -9 0 -16 5 -16 10 0 6 4 10 9 10 6 0 13 -4 16 -10z m93 -47 c-10
-2 -26 -2 -35 0 -10 3 -2 5 17 5 19 0 27 -2 18 -5z m84 -10 c8 -29 -1 -40 -27
-35 -29 5 -29 6 -13 32 16 25 34 26 40 3z m-231 -93 c5 0 9 -12 10 -27 0 -27
17 -78 18 -58 1 9 13 10 79 6 7 -1 10 -5 7 -11 -3 -5 -1 -10 4 -10 6 0 11 -4
11 -10 0 -5 -15 -10 -34 -10 -19 0 -38 5 -41 10 -9 14 -42 12 -49 -2 -4 -9 -5
-8 -5 2 2 23 -12 60 -22 60 -17 0 -9 20 9 21 15 1 15 2 0 6 -9 2 -19 11 -22
20 -5 11 -2 14 10 9 8 -3 20 -6 25 -6z m-70 -43 c-13 -13 -26 -3 -16 12 3 6
11 8 17 5 6 -4 6 -10 -1 -17z m654 -157 c-3 -5 -12 -10 -18 -10 -7 0 -6 4 3
10 19 12 23 12 15 0z m-67 -10 c12 0 22 -5 22 -11 0 -8 -19 -10 -62 -6 -51 4
-64 2 -74 -11 -12 -16 -14 -16 -27 2 -8 10 -19 16 -25 12 -7 -4 -17 -4 -23 0
-25 15 19 25 91 20 41 -3 85 -5 98 -6z m-506 -7 c11 -6 -15 -43 -29 -43 -7 0
-13 5 -13 10 0 6 -7 10 -15 10 -8 0 -15 -5 -15 -11 0 -5 -4 -7 -10 -4 -13 8
-77 16 -122 15 -39 0 -52 15 -20 23 21 6 214 6 224 0z m46 -19 c14 -15 14 -16
-3 -13 -10 2 -20 10 -23 17 -5 17 6 15 26 -4z m65 -11 c-7 -2 -21 -2 -30 0
-10 3 -4 5 12 5 17 0 24 -2 18 -5z"/>
<path d="M485 1070 c-3 -5 1 -10 10 -10 9 0 13 5 10 10 -3 6 -8 10 -10 10 -2
0 -7 -4 -10 -10z"/>
<path d="M923 1133 c9 -9 19 -14 23 -11 10 10 -6 28 -24 28 -15 0 -15 -1 1
-17z"/>
<path d="M1110 2489 c0 -5 4 -9 9 -9 6 0 9 -12 8 -27 -2 -22 2 -28 18 -28 27
0 34 44 8 59 -24 14 -43 16 -43 5z"/>
<path d="M2715 2470 c-8 -13 21 -48 31 -38 3 4 -1 16 -9 28 -10 15 -17 18 -22
10z"/>
<path d="M340 2404 c0 -8 5 -12 10 -9 6 3 10 10 10 16 0 5 -4 9 -10 9 -5 0
-10 -7 -10 -16z"/>
<path d="M4345 2385 c-22 -19 -47 -34 -56 -35 -9 0 -22 -7 -29 -15 -10 -12 -9
-16 6 -22 11 -4 26 -16 35 -27 14 -17 19 -18 33 -7 25 21 76 6 107 -32 37 -43
61 -30 71 39 6 42 4 50 -15 63 -12 8 -35 28 -50 43 -37 36 -53 35 -102 -7z"/>
<path d="M4572 2400 c-9 -15 -10 -26 -2 -40 17 -32 29 -23 27 20 -1 45 -7 49
-25 20z"/>
<path d="M2721 2401 c-7 -5 -10 -14 -7 -20 4 -6 11 -9 15 -6 5 2 8 -14 7 -36
-1 -36 -4 -41 -28 -46 -24 -5 -25 -8 -16 -28 8 -19 6 -32 -10 -64 -21 -40 -76
-99 -119 -128 -18 -12 -23 -25 -23 -58 0 -55 -15 -95 -35 -95 -8 0 -15 5 -15
11 0 5 -4 7 -10 4 -16 -10 -11 -33 8 -38 14 -3 12 -6 -9 -15 -15 -6 -29 -17
-32 -25 -10 -27 -100 -34 -302 -24 -242 12 -272 19 -336 89 -14 15 -31 28 -37
28 -19 0 -25 -44 -15 -112 l8 -63 315 -1 c361 -2 437 -6 500 -33 25 -10 82
-21 128 -24 93 -7 92 -8 107 81 6 40 6 42 -19 42 -17 0 -26 5 -26 16 0 12 6
15 25 10 20 -5 27 -2 37 19 6 14 15 25 20 25 15 0 8 68 -8 85 -14 13 -14 20
-4 45 10 24 10 33 0 45 -10 12 -9 20 4 40 13 19 14 30 6 45 -6 11 -16 17 -22
14 -8 -5 -9 0 -3 17 12 40 8 61 -26 137 -33 71 -47 82 -78 63z m68 -297 c4 3
13 1 20 -3 9 -6 4 -12 -18 -22 -17 -8 -32 -17 -32 -21 -1 -5 -2 -14 -3 -20 -1
-16 -46 -23 -46 -8 0 19 64 94 68 81 2 -6 7 -9 11 -7z m-39 -153 c0 -5 -7 -11
-15 -15 -15 -5 -20 5 -8 17 9 10 23 9 23 -2z m-60 -106 c0 -8 -4 -15 -10 -15
-5 0 -10 7 -10 15 0 8 5 15 10 15 6 0 10 -7 10 -15z m30 -85 c0 -5 -4 -10 -10
-10 -5 0 -10 5 -10 10 0 6 5 10 10 10 6 0 10 -4 10 -10z"/>
<path d="M3523 2378 c-11 -13 -28 -36 -37 -53 -9 -16 -29 -50 -45 -75 -15 -25
-31 -59 -35 -75 -4 -17 -9 -38 -12 -47 -5 -15 1 -18 39 -18 25 0 47 -5 49 -11
3 -9 9 -9 25 0 12 6 31 11 42 11 27 0 29 11 23 123 l-5 98 34 -6 c44 -8 153
-9 204 -2 22 3 52 3 68 0 22 -4 27 -11 27 -34 0 -16 6 -29 13 -30 46 -4 117
15 117 32 0 5 5 9 10 9 6 0 10 -8 10 -19 0 -10 7 -24 15 -31 13 -10 15 -9 15
12 0 13 -5 29 -10 34 -7 7 -6 24 5 53 13 38 13 42 -1 48 -28 11 -256 -7 -359
-27 -134 -27 -151 -26 -162 6 l-8 25 -22 -23z"/>
<path d="M17 2364 c-14 -15 -6 -34 14 -34 14 0 19 5 17 17 -3 18 -20 27 -31
17z"/>
<path d="M965 2340 c-3 -5 1 -10 9 -10 9 0 16 5 16 10 0 6 -4 10 -9 10 -6 0
-13 -4 -16 -10z"/>
<path d="M2362 2323 c-6 -10 -14 -17 -19 -16 -4 1 -7 -5 -5 -14 2 -8 -1 -12
-7 -8 -6 3 -11 1 -11 -4 0 -25 36 -9 48 21 13 36 9 49 -6 21z"/>
<path d="M4748 2326 c-10 -7 -18 -16 -18 -19 0 -3 -13 -19 -30 -35 -37 -38
-37 -45 0 -72 18 -13 32 -33 36 -54 6 -35 49 -76 80 -76 9 0 23 -8 30 -17 9
-13 26 -18 63 -17 33 0 51 -4 51 -11 0 -7 9 -20 20 -30 20 -18 20 -17 20 139
0 97 -4 155 -9 151 -6 -3 -15 4 -21 15 -12 22 -35 17 -26 -6 3 -8 1 -14 -5
-14 -6 0 -7 -4 -4 -10 12 -19 -35 -10 -53 11 -17 21 -87 59 -106 59 -6 0 -19
-7 -28 -14z m98 -77 c3 -6 15 -9 25 -6 12 3 19 0 19 -8 0 -8 8 -16 18 -19 10
-3 25 -18 34 -33 28 -50 -7 -92 -52 -63 -8 5 -11 10 -7 10 8 0 -7 21 -35 47
-9 9 -15 20 -12 24 2 4 0 19 -6 33 -9 26 2 37 16 15z"/>
<path d="M1578 2323 c7 -3 16 -2 19 1 4 3 -2 6 -13 5 -11 0 -14 -3 -6 -6z"/>
<path d="M1347 2303 c-17 -16 -5 -33 23 -33 23 0 30 4 30 20 0 14 -7 20 -23
20 -13 0 -27 -3 -30 -7z"/>
<path d="M922 2288 c-14 -17 0 -41 21 -36 13 2 14 7 3 26 -10 19 -15 21 -24
10z"/>
<path d="M1440 2280 c0 -5 7 -7 15 -4 8 4 15 8 15 10 0 2 -7 4 -15 4 -8 0 -15
-4 -15 -10z"/>
<path d="M1065 2260 c-4 -6 8 -10 29 -10 20 0 36 5 36 10 0 6 -13 10 -29 10
-17 0 -33 -4 -36 -10z"/>
<path d="M984 2245 c-9 -21 -1 -27 29 -23 l25 3 -24 18 c-22 16 -25 16 -30 2z"/>
<path d="M2260 2245 c0 -8 5 -15 10 -15 6 0 10 7 10 15 0 8 -4 15 -10 15 -5 0
-10 -7 -10 -15z"/>
<path d="M194 2241 c-11 -7 -54 -68 -54 -75 0 -10 65 -36 91 -36 64 0 74 22
34 75 -26 33 -55 48 -71 36z"/>
<path d="M1156 2235 c-3 -8 -21 -21 -41 -29 -34 -15 -44 -29 -26 -41 13 -7 63
16 82 39 13 15 19 17 37 7 11 -6 24 -11 27 -11 12 0 -20 25 -47 37 -21 10 -27
9 -32 -2z"/>
<path d="M1295 2240 c-3 -5 -1 -10 4 -10 6 0 11 5 11 10 0 6 -2 10 -4 10 -3 0
-8 -4 -11 -10z"/>
<path d="M529 2238 c-7 -26 -5 -57 4 -61 17 -6 57 10 57 24 0 19 -56 53 -61
37z"/>
<path d="M790 2230 c0 -5 5 -10 10 -10 6 0 10 5 10 10 0 6 -4 10 -10 10 -5 0
-10 -4 -10 -10z"/>
<path d="M4554 2229 c-9 -16 33 -56 46 -43 6 6 5 17 -6 32 -17 24 -29 28 -40
11z"/>
<path d="M2254 2192 c3 -5 0 -13 -6 -15 -8 -3 -6 -6 5 -6 19 -1 23 14 5 25 -6
4 -8 3 -4 -4z"/>
<path d="M910 2180 c0 -5 5 -10 10 -10 6 0 10 5 10 10 0 6 -4 10 -10 10 -5 0
-10 -4 -10 -10z"/>
<path d="M1960 2176 c0 -9 5 -16 10 -16 6 0 10 4 10 9 0 6 -4 13 -10 16 -5 3
-10 -1 -10 -9z"/>
<path d="M2167 2184 c-11 -12 3 -24 28 -24 32 0 40 16 12 24 -28 7 -32 7 -40
0z"/>
<path d="M2065 2160 l-20 -9 20 0 c11 0 27 4 35 9 13 9 13 10 0 9 -8 0 -24 -4
-35 -9z"/>
<path d="M4012 2150 c-9 -15 -9 -20 -1 -20 7 0 2 -9 -10 -19 -12 -10 -20 -25
-19 -32 2 -8 -3 -13 -10 -11 -9 2 -11 -2 -4 -13 12 -22 3 -75 -14 -75 -19 0
-28 20 -15 33 17 17 13 30 -6 23 -15 -6 -15 -4 2 14 10 11 13 20 7 20 -7 0
-21 9 -32 20 -13 13 -20 15 -21 8 -1 -7 -3 -31 -5 -53 -3 -42 19 -80 43 -71 7
3 15 1 18 -4 3 -5 -6 -12 -20 -16 -37 -9 -98 -134 -65 -134 5 0 13 6 17 14 11
18 67 46 92 46 24 0 31 29 34 132 2 72 13 84 37 44 22 -35 80 -105 120 -145
34 -33 35 -34 38 -11 2 12 0 25 -5 29 -21 15 -124 141 -116 141 16 0 2 53 -20
78 -25 27 -29 27 -45 2z"/>
<path d="M702 2148 c4 -12 21 -23 53 -33 19 -6 19 -7 3 -16 -27 -15 -22 -39 7
-39 18 0 28 8 36 27 8 23 6 30 -15 50 -27 24 -91 33 -84 11z"/>
<path d="M868 2153 c-22 -5 -23 -26 -3 -43 18 -15 35 -5 35 20 0 22 -8 28 -32
23z"/>
<path d="M624 2079 c-16 -17 -16 -22 -4 -30 13 -8 13 -10 0 -19 -24 -16 42
-12 81 4 28 12 31 16 17 21 -10 4 -18 16 -18 26 0 27 -51 25 -76 -2z m61 -9
c3 -5 -1 -10 -9 -10 -9 0 -16 5 -16 10 0 6 4 10 9 10 6 0 13 -4 16 -10z"/>
<path d="M185 2060 c-3 -5 1 -10 9 -10 9 0 16 5 16 10 0 6 -4 10 -9 10 -6 0
-13 -4 -16 -10z"/>
<path d="M111 2006 c-7 -8 -21 -13 -32 -11 -24 5 -79 -14 -79 -26 0 -6 33 -9
78 -7 75 3 77 4 77 28 0 29 -26 38 -44 16z"/>
<path d="M4770 2010 c0 -15 80 -90 96 -90 33 0 6 53 -36 70 -16 7 -30 16 -30
21 0 5 -7 9 -15 9 -8 0 -15 -5 -15 -10z"/>
<path d="M4290 2000 c0 -6 -11 -16 -25 -22 -18 -8 -25 -19 -25 -40 0 -18 9
-36 25 -50 14 -12 25 -28 25 -35 0 -14 22 -18 34 -5 4 4 21 7 37 7 16 0 28 4
28 9 0 5 5 13 13 17 8 6 -12 7 -49 4 -60 -6 -63 -5 -69 20 -3 13 -10 23 -14
20 -4 -2 -5 7 -2 20 5 31 28 32 52 3 15 -19 21 -21 42 -11 29 13 43 7 52 -24
9 -27 21 -29 42 -8 9 8 24 15 34 15 25 0 34 -60 12 -78 -15 -11 -15 -14 -2
-22 8 -5 24 -10 36 -10 11 0 25 -5 31 -11 5 -5 38 -10 72 -11 56 -1 92 -16 63
-26 -17 -5 -15 -22 2 -22 16 0 46 -42 46 -64 0 -18 -36 -40 -44 -27 -3 4 -1
22 4 40 9 31 8 31 -23 25 -41 -7 -47 -13 -40 -46 4 -21 11 -28 30 -28 20 0 22
-3 13 -19 -5 -11 -22 -21 -37 -23 -37 -4 -37 -32 0 -36 19 -2 27 1 27 12 0 9
9 16 20 16 11 0 20 5 20 10 0 17 26 11 44 -9 22 -24 13 -41 -19 -41 -27 0 -70
-39 -57 -52 5 -5 21 -4 36 2 35 13 45 7 38 -25 -5 -26 6 -33 25 -14 16 16 78
7 78 -11 0 -19 -41 -25 -61 -10 -17 15 -44 -3 -44 -29 0 -10 -9 -17 -25 -17
-21 -2 -24 1 -14 12 19 24 -18 57 -58 52 -32 -4 -32 -3 -18 18 13 20 12 24 -6
40 -11 10 -17 24 -15 31 3 8 -2 13 -12 13 -13 0 -17 -9 -18 -35 0 -19 3 -35 6
-35 4 0 5 -11 2 -26 -3 -19 -10 -24 -26 -22 -23 3 -34 37 -16 48 17 10 4 30
-19 30 -26 0 -44 -23 -29 -38 8 -8 8 -15 0 -25 -15 -17 -6 -27 25 -27 16 0 23
-6 25 -20 0 -11 1 -26 2 -32 1 -7 -8 -13 -19 -13 -12 0 -21 -8 -23 -20 -2 -11
-15 -32 -28 -46 -24 -25 -23 -39 3 -39 7 0 13 7 13 15 0 8 7 15 15 15 9 0 15
9 15 24 0 32 17 42 68 44 30 1 42 -3 42 -14 0 -7 -7 -14 -15 -14 -8 0 -15 -4
-15 -10 0 -17 87 -12 94 6 5 14 8 14 27 0 20 -13 25 -13 51 0 16 8 26 19 23
24 -4 6 5 10 19 10 29 0 34 14 10 28 -12 7 -13 11 -5 16 7 4 23 0 37 -9 22
-14 24 -18 11 -28 -19 -16 -31 -77 -14 -78 6 0 21 -3 32 -5 46 -10 78 -8 82 4
3 7 -5 12 -21 12 -29 0 -43 17 -27 33 7 7 6 13 -4 21 -12 9 -10 16 11 40 19
21 28 26 37 17 8 -8 8 -11 -1 -11 -7 0 -12 -9 -12 -20 0 -31 17 -23 24 11 9
49 7 209 -3 209 -5 0 -11 -12 -13 -27 -2 -22 -9 -29 -30 -31 -20 -2 -28 1 -28
12 0 20 -24 21 -43 2 -24 -24 -39 -5 -25 32 9 24 10 37 2 50 -15 23 -39 22
-39 -3 0 -26 -31 -31 -44 -7 -9 16 -7 21 9 25 25 7 25 21 0 45 -15 14 -19 29
-17 70 2 50 3 52 30 52 35 0 38 36 5 49 -25 9 -87 -16 -88 -35 0 -13 -150 -15
-150 -2 0 4 5 8 10 8 6 0 10 13 10 29 0 16 7 34 15 41 14 11 12 15 -12 30 -25
15 -29 15 -40 1 -10 -14 -14 -14 -35 5 -42 38 -218 82 -218 54z m663 -505 c31
-27 35 -45 10 -45 -23 0 -53 29 -53 52 0 24 9 22 43 -7z m-37 -52 c-3 -8 -6
-17 -6 -19 0 -2 -7 -4 -15 -4 -9 0 -15 9 -15 24 0 19 4 23 21 19 12 -4 18 -11
15 -20z m-256 -23 c0 -5 -9 -10 -20 -10 -11 0 -20 5 -20 10 0 6 9 10 20 10 11
0 20 -4 20 -10z m114 -55 c3 -8 1 -15 -4 -15 -6 0 -10 7 -10 15 0 8 2 15 4 15
2 0 6 -7 10 -15z"/>
<path d="M4610 2000 c0 -5 7 -10 16 -10 8 0 12 5 9 10 -3 6 -10 10 -16 10 -5
0 -9 -4 -9 -10z"/>
<path d="M304 1989 c-3 -5 -14 -9 -25 -9 -15 0 -20 -6 -17 -22 2 -18 10 -22
41 -24 39 -1 63 16 54 39 -6 17 -45 29 -53 16z"/>
<path d="M459 1978 c-9 -19 -9 -21 2 -10 7 6 27 12 44 12 23 0 26 3 15 10 -25
16 -49 11 -61 -12z"/>
<path d="M3577 1979 c-19 -26 -18 -28 12 -34 22 -4 29 17 12 44 -7 10 -12 8
-24 -10z"/>
<path d="M191 1961 c-10 -6 -10 -10 -1 -16 13 -8 24 -1 19 14 -3 6 -10 7 -18
2z"/>
<path d="M380 1940 c-13 -8 -13 -10 2 -10 9 0 20 5 23 10 8 13 -5 13 -25 0z"/>
<path d="M4924 1895 c-5 -28 -10 -34 -24 -30 -10 3 -21 1 -25 -5 -3 -5 2 -10
14 -10 10 0 26 -3 35 -6 10 -4 16 -1 16 8 0 25 21 38 42 27 17 -9 19 -7 16 18
-2 23 -8 29 -35 31 -29 3 -32 0 -39 -33z"/>
<path d="M2860 1810 c-13 -8 -12 -10 3 -10 9 0 17 5 17 10 0 12 -1 12 -20 0z"/>
<path d="M4974 1811 c4 -5 3 -11 -1 -13 -17 -7 -50 -64 -49 -83 4 -44 27 -56
61 -32 11 9 15 19 10 27 -12 19 -15 80 -5 80 6 0 10 7 10 15 0 8 -7 15 -16 15
-8 0 -13 -4 -10 -9z"/>
<path d="M4785 1770 c3 -6 19 -17 36 -25 27 -15 29 -14 29 4 0 10 -7 22 -16
25 -25 10 -56 7 -49 -4z"/>
<path d="M4417 1748 c-11 -39 13 -50 48 -24 16 12 17 16 6 30 -19 23 -48 20
-54 -6z"/>
<path d="M2883 1745 c0 -8 4 -15 9 -15 4 0 8 4 8 9 0 6 -4 12 -8 15 -5 3 -9
-1 -9 -9z"/>
<path d="M1615 1707 c-14 -35 -30 -52 -50 -52 -12 0 -61 -99 -70 -140 -4 -22
-3 -26 5 -15 8 13 10 13 10 -2 0 -10 4 -18 9 -18 5 0 15 -16 22 -35 7 -19 17
-35 21 -35 4 0 8 -9 8 -21 0 -11 4 -28 10 -38 9 -17 7 -17 -25 -2 -29 14 -36
23 -46 71 -7 31 -14 47 -17 36 -7 -31 20 -109 48 -141 43 -47 49 -92 6 -50 -8
8 -19 15 -25 15 -6 0 -20 14 -30 30 l-18 31 -13 -31 c-7 -16 -16 -30 -20 -30
-4 0 7 -15 26 -34 23 -23 34 -44 34 -62 0 -23 2 -26 10 -14 5 8 10 11 11 5 1
-5 3 -14 4 -20 2 -5 3 -18 4 -28 0 -10 5 -16 10 -12 5 3 12 -3 15 -12 3 -10 4
-2 1 18 -4 39 11 47 37 21 7 -7 17 -12 23 -12 5 0 24 -11 40 -25 17 -14 22
-22 13 -19 -19 7 -25 -11 -7 -21 6 -4 8 -13 5 -20 -2 -7 0 -17 6 -23 5 -5 10
-27 11 -47 1 -32 3 -35 14 -19 7 9 10 21 7 25 -3 5 -1 9 3 9 5 0 15 21 23 48
14 46 14 47 18 15 2 -18 7 -33 13 -33 5 0 9 -4 9 -10 0 -5 -9 -10 -20 -10 -13
0 -17 -5 -14 -14 3 -8 -2 -26 -11 -40 -9 -14 -15 -29 -13 -34 1 -5 35 2 73 15
92 32 121 39 240 59 96 16 204 40 211 47 7 7 -81 51 -106 53 -26 3 -52 30 -98
101 -31 49 -41 54 -35 19 5 -23 2 -22 -36 15 -49 46 -61 48 -61 12 l0 -28 -35
40 c-28 33 -34 36 -35 20 0 -17 -3 -16 -19 8 -13 20 -20 25 -24 15 -3 -8 -6
-5 -7 7 -1 32 -25 55 -56 56 -17 1 -22 3 -12 6 15 4 88 -9 188 -32 18 -5 21
-4 10 3 -18 12 -163 52 -186 52 -9 0 -31 7 -50 16 -27 13 -32 19 -23 30 9 11
7 14 -9 14 -48 0 -66 77 -36 155 19 50 37 135 30 143 -3 3 -12 -11 -21 -31z
m11 -513 l39 -36 -30 7 c-30 6 -75 41 -75 57 0 18 29 6 66 -28z m208 -63 c8
-12 -21 -34 -33 -27 -6 4 -8 13 -4 21 6 17 29 20 37 6z m-24 -51 c0 -5 -4 -10
-10 -10 -5 0 -10 5 -10 10 0 6 5 10 10 10 6 0 10 -4 10 -10z m85 0 c4 -6 -11
-10 -35 -10 -23 0 -39 3 -37 8 8 11 66 13 72 2z m92 -18 c14 -9 5 -62 -11 -62
-24 0 -34 20 -22 46 12 26 15 27 33 16z m-109 -49 c-8 -10 -14 -23 -11 -29 2
-7 -10 -14 -27 -16 -34 -5 -38 -1 -13 17 14 11 13 13 -11 19 -39 10 -25 21 30
24 45 2 47 1 32 -15z"/>
<path d="M4495 1720 c-9 -15 -5 -19 33 -26 21 -4 32 -3 32 5 0 6 -8 11 -18 11
-10 0 -23 5 -29 11 -8 8 -13 8 -18 -1z"/>
<path d="M4315 1697 c6 -23 4 -25 -19 -23 -16 2 -26 -2 -26 -10 0 -7 12 -14
27 -16 30 -3 44 -35 23 -48 -8 -5 -10 -16 -6 -26 5 -13 9 -15 18 -6 7 7 20 12
31 12 14 0 17 -5 12 -20 -5 -15 -2 -20 12 -21 96 -6 113 -4 113 15 0 19 -45
37 -58 24 -14 -14 -41 -3 -49 19 -3 10 -13 26 -22 36 -14 17 -14 20 3 32 23
17 14 45 -13 45 -11 0 -27 3 -36 6 -13 5 -15 2 -10 -19z"/>
<path d="M2936 1665 c-3 -10 -2 -23 4 -29 15 -15 24 1 13 26 -9 20 -10 20 -17
3z"/>
<path d="M3973 1665 c-7 -8 -13 -20 -13 -26 0 -7 -3 -9 -7 -6 -4 4 -17 -13
-29 -38 -12 -25 -35 -61 -52 -79 -17 -19 -29 -36 -26 -38 2 -3 0 -27 -5 -54
-6 -31 -6 -53 1 -61 11 -14 4 -68 -12 -88 -9 -10 -8 -19 0 -36 9 -17 9 -23 0
-29 -7 -4 -9 -13 -5 -20 4 -6 1 -23 -6 -37 -11 -20 -11 -26 1 -33 8 -5 18 -6
23 -3 5 3 6 -4 2 -16 -5 -15 -2 -21 9 -21 9 0 16 5 16 11 0 7 9 43 20 81 19
62 23 67 41 58 10 -6 49 -13 87 -16 62 -6 65 -5 46 9 -11 9 -39 23 -61 32 -29
11 -45 26 -54 47 l-13 31 -10 -24 c-21 -53 -33 -86 -47 -128 -14 -45 -32 -57
-37 -28 -2 10 7 26 20 37 22 19 22 20 4 35 -14 11 -16 18 -8 28 10 12 34 86
49 155 3 13 12 26 19 29 7 2 10 11 7 19 -3 8 -1 14 4 14 5 0 10 6 11 13 3 49
32 172 41 175 12 4 15 22 4 22 -5 -1 -14 -7 -20 -15z"/>
<path d="M4457 1663 c-33 -4 -36 -6 -27 -24 6 -11 21 -19 35 -19 13 0 31 -7
40 -16 10 -10 24 -14 39 -10 16 4 26 1 30 -9 7 -20 28 -15 42 10 13 23 1 45
-25 45 -10 0 -26 7 -37 15 -19 14 -27 15 -97 8z"/>
<path d="M2996 1653 c-12 -12 -6 -51 8 -56 18 -7 26 1 26 29 0 21 -22 39 -34
27z"/>
<path d="M3083 1605 c15 -13 27 -29 27 -35 0 -22 45 -6 48 17 4 29 -32 50 -55
31 -13 -10 -17 -10 -20 0 -3 6 -10 12 -16 12 -7 0 0 -12 16 -25z"/>
<path d="M4901 1611 c-11 -7 -10 -11 7 -20 28 -15 32 -14 32 9 0 21 -16 26
-39 11z"/>
<path d="M3498 1558 c-77 -41 -80 -57 -8 -39 19 5 47 12 63 15 20 5 27 12 27
31 0 32 -13 31 -82 -7z"/>
<path d="M3200 1552 c-18 -15 -20 -20 -9 -24 17 -7 89 20 89 33 0 16 -57 9
-80 -9z"/>
<path d="M1690 1532 c0 -9 28 -51 48 -71 24 -25 21 -6 -6 37 -25 39 -42 53
-42 34z"/>
<path d="M4257 1499 c-8 -28 -1 -39 24 -39 11 0 33 -7 48 -15 18 -9 42 -12 65
-8 l36 6 -5 -78 c-3 -42 -7 -81 -10 -85 -9 -15 -55 15 -55 36 0 27 -42 66
-108 98 l-52 26 -11 -27 c-22 -57 -23 -92 -3 -99 11 -4 27 -16 37 -26 16 -16
16 -19 3 -24 -20 -8 -21 -24 -1 -24 9 0 18 8 22 18 14 39 24 43 57 25 19 -11
52 -18 86 -18 l54 0 9 50 c5 33 5 51 -2 53 -14 5 -14 32 0 32 6 0 8 12 4 33
-4 17 -7 42 -7 55 0 17 -6 22 -27 22 -15 0 -33 -6 -39 -12 -10 -10 -17 -10
-32 0 -12 7 -31 10 -46 6 -16 -4 -29 -2 -34 5 -5 9 -9 5 -13 -10z"/>
<path d="M1320 1501 c0 -6 5 -13 10 -16 6 -3 10 1 10 9 0 9 -4 16 -10 16 -5 0
-10 -4 -10 -9z"/>
<path d="M2892 1461 c6 -11 27 -22 46 -26 18 -3 41 -9 50 -12 9 -3 -6 9 -35
26 -61 36 -78 40 -61 12z"/>
<path d="M3200 1458 c39 -19 66 -23 203 -26 133 -3 157 -2 157 11 0 12 -19 13
-120 9 -106 -4 -158 0 -265 23 -11 3 0 -5 25 -17z"/>
<path d="M2620 1461 c58 -18 128 -61 133 -82 6 -22 7 -23 27 -4 11 10 17 22
13 25 -14 13 -165 70 -182 69 -9 0 -5 -4 9 -8z"/>
<path d="M1345 1428 c9 -41 37 -90 55 -96 9 -3 11 2 7 19 -4 13 -7 36 -7 52 0
17 -5 27 -15 27 -8 0 -15 7 -15 15 0 8 -7 15 -16 15 -12 0 -14 -7 -9 -32z"/>
<path d="M4220 1449 c0 -5 5 -7 10 -4 6 3 10 8 10 11 0 2 -4 4 -10 4 -5 0 -10
-5 -10 -11z"/>
<path d="M3985 1350 c-8 -12 26 -26 63 -25 17 0 27 6 27 15 0 18 -79 27 -90
10z"/>
<path d="M3520 1340 c-12 -8 -9 -10 12 -10 15 0 30 5 33 10 8 13 -25 13 -45 0z"/>
<path d="M3350 1320 c29 -20 136 -47 175 -45 45 3 62 25 18 25 -15 0 -44 4
-63 9 -60 15 -147 23 -130 11z"/>
<path d="M4636 1271 c-14 -16 -15 -19 -2 -24 16 -6 50 26 39 36 -10 11 -19 8
-37 -12z"/>
<path d="M4284 1230 c4 -23 2 -30 -10 -30 -10 0 -14 -8 -12 -27 2 -22 -2 -29
-19 -31 -16 -2 -23 2 -23 13 0 11 5 15 15 11 21 -8 19 14 -2 30 -23 17 -33 17
-33 0 0 -8 -11 -28 -25 -44 -14 -17 -25 -37 -25 -46 0 -10 9 -16 25 -16 28 0
33 -21 10 -40 -9 -8 -13 -21 -10 -32 6 -16 2 -18 -26 -16 -18 2 -34 -2 -36 -9
-3 -8 4 -13 19 -13 22 -1 71 -29 52 -31 -5 -1 -27 -3 -48 -5 -46 -4 -66 -18
-49 -35 9 -9 8 -15 -3 -26 -19 -20 -18 -30 6 -38 32 -10 23 -24 -20 -31 -22
-4 -40 -11 -40 -16 0 -6 -9 -23 -21 -39 -25 -35 -19 -61 13 -58 59 5 108 -2
108 -15 0 -8 -16 -16 -42 -19 -28 -4 -48 -13 -57 -26 -7 -12 -20 -21 -28 -21
-11 0 -13 -7 -9 -25 5 -18 2 -25 -9 -25 -8 0 -15 -8 -15 -17 0 -16 -1 -16 -16
-1 -13 12 -14 20 -5 37 9 17 6 37 -18 106 -39 109 -52 133 -95 174 -43 42 -48
32 -6 -15 42 -49 55 -104 39 -175 -11 -50 -15 -56 -28 -46 -12 9 -13 9 -7 0
10 -18 -4 -39 -15 -22 -6 10 -9 8 -9 -9 0 -13 -5 -32 -11 -43 -10 -20 -12 -20
-29 -4 -11 10 -26 15 -34 12 -12 -5 -12 -1 2 23 14 24 14 30 2 44 -7 9 -19 15
-26 12 -26 -10 -134 87 -134 120 0 8 -4 14 -9 14 -5 0 -15 16 -21 35 -10 31
-16 35 -46 35 -22 0 -34 -5 -34 -13 0 -8 -11 -19 -24 -26 -15 -8 -22 -19 -19
-31 7 -27 -25 -53 -58 -46 -43 8 -45 -12 -3 -30 20 -9 44 -24 53 -35 9 -10 57
-40 106 -67 111 -58 117 -76 33 -102 -31 -10 -106 -21 -165 -25 -109 -7 -148
-19 -190 -57 -16 -15 -29 -19 -49 -14 -24 6 -26 5 -20 -19 4 -17 2 -25 -6 -26
-7 0 -30 -1 -50 -3 -28 -2 -38 1 -38 12 0 30 34 130 70 204 21 42 36 79 34 81
-3 2 -35 -2 -72 -10 -37 -8 -91 -19 -120 -25 -103 -22 -35 -42 76 -23 31 6 42
4 42 -5 0 -15 -57 -69 -85 -81 -13 -5 -4 -6 25 -2 32 4 42 2 35 -5 -13 -15
-138 -21 -212 -11 -31 4 -62 4 -68 0 -5 -5 -30 -11 -55 -14 -58 -7 -139 -25
-167 -39 -11 -6 -25 -8 -31 -4 -5 3 -40 -1 -78 -10 -38 -8 -89 -18 -114 -20
-25 -3 -57 -10 -73 -16 -22 -9 -31 -7 -47 7 -14 12 -20 14 -20 5 0 -18 40 -80
51 -80 20 0 7 -19 -23 -34 -32 -16 -32 -16 -72 23 -23 21 -59 48 -81 59 -22
11 -56 36 -74 56 -37 38 -54 46 -45 21 5 -11 2 -13 -10 -9 -9 3 -16 2 -16 -4
0 -5 7 -12 15 -16 8 -3 15 -12 15 -20 0 -9 25 -31 55 -50 30 -20 63 -44 75
-56 11 -11 27 -20 35 -20 8 0 15 -5 15 -11 0 -14 -51 -3 -65 14 -5 7 -19 14
-30 16 -20 3 -20 3 0 -20 l20 -23 -30 20 c-17 10 -57 37 -88 58 -42 29 -61 36
-66 27 -5 -8 -20 2 -49 33 -48 52 -52 50 -17 -10 28 -48 77 -82 125 -88 18 -2
42 -14 54 -26 l21 -22 -64 7 c-68 7 -143 39 -175 74 -25 27 -85 57 -108 53
-10 -2 -18 2 -18 7 0 18 -25 13 -55 -10 -22 -18 -26 -27 -21 -51 4 -20 2 -27
-5 -22 -15 9 -29 -14 -29 -47 0 -29 11 -36 69 -45 31 -5 56 -22 47 -31 -2 -2
-25 -5 -52 -8 -76 -6 -75 -8 11 -15 l80 -6 -81 -2 -82 -2 -5 42 c-4 40 -46
176 -67 223 -43 92 -69 115 -93 81 -5 -7 -7 -4 -5 8 3 15 -4 19 -39 20 -32 1
-39 -2 -31 -12 6 -6 19 -12 29 -12 11 0 19 -5 19 -11 0 -6 7 -18 16 -27 11
-11 13 -17 5 -20 -6 -2 -8 -9 -4 -15 4 -6 0 -8 -10 -4 -22 8 -22 -2 1 -19 16
-12 15 -13 -6 -14 -15 0 -26 -9 -32 -26 -13 -33 -13 -32 7 -37 14 -4 12 -5 -4
-6 -27 -1 -30 -18 -5 -38 16 -14 16 -14 0 -9 -10 3 -20 0 -24 -6 -4 -6 -3 -9
2 -6 15 10 31 -16 28 -45 -3 -30 10 -36 25 -10 8 14 12 15 25 4 9 -7 16 -19
16 -26 0 -11 49 -34 108 -51 22 -6 13 -23 -30 -52 -50 -34 -163 -50 -173 -24
-2 7 -9 10 -15 7 -6 -4 -8 -11 -5 -16 4 -5 1 -9 -4 -9 -6 0 -11 5 -11 12 0 6
-9 3 -20 -7 -11 -10 -20 -22 -20 -27 0 -4 110 -8 245 -8 208 0 250 2 279 17
33 15 37 15 54 0 17 -15 57 -17 392 -17 275 0 371 3 363 11 -6 6 -32 14 -57
16 -34 4 -47 11 -52 25 -8 25 -6 27 59 44 46 12 61 12 101 0 43 -13 46 -13 46
5 0 16 7 19 40 19 27 0 43 5 46 15 10 25 37 19 29 -6 -7 -20 -5 -21 21 -15 16
4 32 12 35 18 11 17 73 5 77 -16 5 -23 -14 -36 -53 -35 -26 0 -27 2 -10 9 18
8 18 9 -5 9 -25 1 -64 -17 -45 -20 6 -1 -8 -5 -30 -8 -22 -3 -43 -2 -47 3 -3
5 -13 2 -23 -7 -12 -12 -13 -21 -6 -35 6 -11 7 -22 4 -26 -3 -3 1 -6 11 -6 9
0 14 5 11 10 -4 6 8 10 29 10 19 0 36 -5 38 -11 3 -9 14 -7 38 4 46 20 150 28
150 11 0 -7 -6 -15 -12 -17 -7 -3 26 -6 75 -6 56 -1 87 3 87 10 0 17 28 40 62
50 50 14 68 11 68 -10 0 -36 12 -51 39 -51 l28 0 -8 58 c-4 31 -10 87 -12 125
-3 37 -13 99 -23 137 -16 67 -16 71 1 90 28 31 83 44 185 43 140 0 137 0 149
-33 16 -46 71 -35 71 14 0 16 3 17 12 8 7 -7 25 -12 40 -12 15 0 51 -9 80 -20
72 -27 96 -26 108 6 7 16 14 23 22 18 7 -5 40 -7 74 -6 45 2 64 -1 74 -13 17
-21 7 -29 -19 -15 -12 6 -26 8 -31 5 -6 -3 -10 -1 -10 5 0 6 -4 8 -10 5 -5 -3
-10 -17 -10 -31 0 -19 -5 -24 -27 -25 -61 -3 -130 0 -168 6 -36 6 -38 5 -23
-8 23 -18 13 -27 -29 -27 -33 0 -47 23 -20 33 12 5 -19 10 -78 12 -42 1 -45
-1 -34 -38 6 -17 12 -40 14 -51 2 -10 8 -23 13 -30 5 -6 13 -29 16 -51 4 -22
13 -58 21 -80 7 -22 18 -59 24 -82 l12 -43 192 1 c106 1 184 3 174 6 -11 3
-16 10 -13 20 3 8 6 17 6 19 0 2 11 4 25 4 16 0 25 6 25 16 0 32 35 10 40 -26
6 -40 29 -50 55 -23 17 16 16 18 -9 26 -38 13 -33 30 7 22 39 -9 70 -34 63
-52 -4 -10 7 -13 44 -13 27 0 52 5 55 10 8 13 55 13 55 1 0 -6 118 -10 295
-10 l294 -1 -1 48 c0 26 -5 53 -10 60 -7 8 -7 12 1 12 6 0 11 7 11 15 0 9 -6
12 -17 9 -17 -5 -17 -5 0 9 28 23 22 54 -13 62 -16 4 -30 10 -30 13 0 9 43 37
52 34 9 -2 8 93 -1 144 -5 25 -5 44 0 44 5 0 9 67 9 148 l0 148 -72 -4 c-60
-3 -71 -2 -60 9 19 21 14 47 -13 65 -36 23 -22 34 44 34 66 0 94 -18 71 -45
-10 -12 -9 -15 8 -15 18 0 20 6 20 61 0 58 -1 60 -21 54 -24 -7 -23 -7 -90 -4
-26 1 -49 4 -51 8 -2 3 2 18 8 33 11 26 13 27 39 13 19 -10 43 -12 73 -8 l44
6 0 123 c0 117 -1 124 -20 124 -11 0 -20 5 -20 10 0 6 9 10 20 10 12 0 20 7
20 16 0 11 -5 14 -17 9 -10 -4 -31 -11 -48 -15 -52 -13 -65 -22 -65 -42 0 -17
-4 -19 -32 -13 -18 4 -37 14 -41 21 -11 20 -87 19 -87 -1 0 -8 3 -14 8 -14 38
6 42 -13 6 -29 -14 -7 -22 -16 -19 -22 3 -5 -4 -14 -16 -21 l-22 -11 24 -19
c13 -10 34 -19 47 -19 12 0 22 -4 22 -10 0 -5 -9 -10 -20 -10 -11 0 -20 -4
-20 -10 0 -5 10 -10 23 -10 12 0 29 -5 37 -10 12 -8 11 -10 -8 -10 -14 0 -26
-8 -32 -24 -11 -31 -26 -35 -74 -21 -30 9 -42 19 -47 38 -6 23 -4 26 20 29 35
4 34 32 -1 36 -19 2 -25 8 -21 18 3 9 -5 18 -26 25 -20 7 -31 18 -31 30 0 15
8 19 43 21 68 2 70 2 75 17 3 10 -2 12 -22 7 -26 -6 -66 7 -66 23 0 5 11 6 25
3 33 -6 34 21 2 35 -30 14 -117 4 -124 -13 -7 -18 -43 -18 -43 -1 0 9 -11 12
-35 9 -19 -2 -53 3 -75 12 -57 23 -63 21 -56 -14z m54 -12 c-7 -19 -38 -22
-38 -4 0 10 9 16 21 16 12 0 19 -5 17 -12z m607 -38 c19 -8 19 -9 -2 -9 -15
-1 -23 -7 -23 -18 0 -13 -3 -14 -11 -6 -12 12 -6 44 8 42 4 0 17 -4 28 -9z
m-407 -23 c4 -22 -24 -33 -43 -17 -12 10 -13 16 -4 27 16 18 43 13 47 -10z
m332 -26 c0 -12 -20 -25 -27 -18 -7 7 6 27 18 27 5 0 9 -4 9 -9z m-475 -32
l30 -21 -37 7 c-30 5 -38 3 -38 -10 0 -8 -4 -15 -10 -15 -5 0 -10 7 -10 15 0
9 -7 18 -15 21 -25 10 -17 19 18 21 19 2 44 -6 62 -18z m140 -9 c3 -5 1 -10
-4 -10 -6 0 -11 5 -11 10 0 6 2 10 4 10 3 0 8 -4 11 -10z m327 -12 c-9 -9 -15
-9 -24 0 -9 9 -7 12 12 12 19 0 21 -3 12 -12z m-277 -8 c4 -6 -5 -10 -20 -10
-15 0 -24 4 -20 10 3 6 12 10 20 10 8 0 17 -4 20 -10z m-300 -11 c11 -17 -1
-21 -15 -4 -8 9 -8 15 -2 15 6 0 14 -5 17 -11z m679 -24 c4 -11 -2 -15 -22
-15 -15 0 -43 -4 -62 -10 -37 -11 -74 -4 -64 11 3 5 9 7 14 4 5 -3 22 1 37 9
37 20 89 20 97 1z m-734 -20 c0 -8 -6 -15 -14 -15 -17 0 -28 14 -19 24 12 12
33 6 33 -9z m176 -1 c82 -28 104 -57 32 -43 -57 11 -58 11 -55 -2 3 -14 -29
-20 -67 -13 l-28 6 23 12 c32 15 40 51 10 41 -12 -4 -21 -2 -21 4 0 16 49 13
106 -5z m-136 -49 c0 -3 -14 -5 -31 -5 -27 0 -30 2 -19 15 9 11 17 12 31 4 10
-5 19 -12 19 -14z m193 -57 c21 -15 32 -18 35 -10 5 17 22 15 22 -3 0 -8 -5
-15 -10 -15 -6 0 -8 -11 -4 -25 5 -20 2 -25 -13 -25 -10 0 -23 -4 -28 -9 -16
-15 -73 -1 -78 19 -3 12 -12 17 -30 15 -21 -3 -24 0 -19 19 3 11 14 33 25 48
22 30 42 27 100 -14z m-146 5 c5 -13 -63 -20 -127 -13 -62 7 -52 24 17 30 65
6 105 -1 110 -17z m340 -7 c15 -13 26 -26 23 -29 -7 -7 -37 -10 -75 -8 -28 2
-29 3 -12 15 12 9 14 16 8 21 -18 10 -13 25 8 25 11 0 33 -11 48 -24z m154
-26 c15 0 10 -42 -8 -62 -21 -24 -69 -23 -100 2 -21 17 -23 21 -9 26 9 3 23 4
31 1 8 -4 17 -2 20 3 4 6 -1 10 -9 10 -9 0 -16 4 -16 9 0 10 47 20 68 14 8 -1
18 -3 23 -3z m-531 -40 c0 -13 7 -20 20 -20 11 0 20 -4 20 -10 0 -16 -17 -12
-55 14 -29 20 -32 25 -18 29 31 8 33 7 33 -13z m280 -41 c0 -5 -6 -9 -13 -9
-8 0 -14 6 -14 14 0 8 6 12 14 9 7 -3 13 -9 13 -14z m-1032 -19 c6 -55 -74
-127 -99 -89 -16 26 -9 47 27 83 41 41 68 43 72 6z m1127 20 c-3 -5 -22 -10
-41 -10 -19 0 -34 5 -34 10 0 6 18 10 41 10 24 0 38 -4 34 -10z m-437 -32 c23
-10 53 -17 65 -15 16 1 23 -4 25 -20 4 -27 -10 -30 -29 -7 -10 13 -25 15 -66
11 -29 -3 -55 -1 -58 4 -4 5 -26 9 -49 9 -41 0 -74 19 -59 34 13 13 128 2 171
-16z m274 8 c10 -7 15 -16 11 -19 -13 -13 -51 -7 -74 13 l-24 19 35 0 c19 0
43 -6 52 -13z m192 -15 c17 -18 16 -19 -26 -23 -24 -3 -50 -8 -58 -11 -21 -10
-42 6 -34 27 4 11 13 15 25 11 10 -4 27 -2 36 4 26 15 38 13 57 -8z m-299 -21
c-3 -5 -11 -10 -16 -10 -6 0 -7 5 -4 10 3 6 11 10 16 10 6 0 7 -4 4 -10z m80
-67 c28 -32 35 -93 10 -93 -9 0 -12 6 -9 15 4 9 0 15 -10 15 -9 0 -15 6 -13
12 1 7 -8 14 -21 16 -28 4 -39 27 -22 47 18 22 38 18 65 -12z m-229 -18 c-3
-8 0 -15 7 -15 7 0 4 -6 -7 -12 -11 -6 -39 -8 -68 -5 -42 5 -48 4 -38 -8 6 -8
9 -19 5 -26 -4 -6 -1 -16 6 -21 10 -7 5 -8 -16 -3 -16 3 -37 6 -45 7 -8 0 -24
7 -35 14 -17 12 -17 14 -2 14 9 0 17 7 17 15 0 10 10 15 31 15 16 0 28 3 26 8
-3 4 19 5 49 4 44 -3 54 -1 54 12 0 9 5 16 11 16 6 0 9 -7 5 -15z m491 -16
c24 -9 26 -12 11 -20 -9 -5 -15 -15 -12 -22 3 -10 -5 -12 -30 -9 -35 4 -39 17
-13 50 11 15 9 14 44 1z m-407 -9 c0 -5 -7 -10 -15 -10 -8 0 -15 5 -15 10 0 6
7 10 15 10 8 0 15 -4 15 -10z m30 0 c0 -5 -4 -10 -10 -10 -5 0 -10 5 -10 10 0
6 5 10 10 10 6 0 10 -4 10 -10z m585 -20 c18 -20 17 -20 -21 -21 -82 -2 -119
7 -90 23 10 5 23 5 35 -2 27 -14 41 -13 41 5 0 21 13 19 35 -5z m-510 -8 c-3
-3 -11 0 -18 7 -9 10 -8 11 6 5 10 -3 15 -9 12 -12z m-191 -28 c17 -16 21 -34
9 -34 -17 1 -45 29 -38 39 8 14 11 14 29 -5z m230 -41 c14 -7 28 -8 48 -1 38
13 98 5 133 -18 25 -16 26 -19 9 -25 -11 -3 -27 -3 -36 2 -9 5 -26 9 -37 9
-12 0 -21 7 -21 15 0 21 -17 19 -30 -5 -14 -26 -60 -27 -61 -2 -1 16 -2 16 -6
0 -5 -22 -23 -24 -23 -3 0 9 -6 12 -15 9 -10 -4 -15 0 -15 15 0 23 19 24 54 4z
m-538 -9 c-4 -9 -2 -22 4 -29 8 -10 -3 -14 -52 -20 -35 -3 -71 -9 -80 -11 -10
-3 -18 0 -18 6 0 6 14 13 30 17 19 3 30 12 30 23 0 25 9 30 53 30 32 0 38 -3
33 -16z m1020 -21 c-3 -3 -12 -1 -19 5 -8 7 -18 8 -22 4 -5 -4 -5 -1 -1 6 5 9
12 9 27 1 12 -6 18 -13 15 -16z m-578 0 c5 -10 7 -23 5 -29 -2 -7 17 -20 42
-30 25 -9 42 -21 38 -25 -14 -14 -81 12 -111 42 -15 16 -38 29 -51 29 -34 0
-86 -37 -99 -72 -6 -16 -18 -28 -29 -28 -10 0 -25 -5 -33 -10 -30 -19 19 -38
95 -38 38 0 77 -2 85 -3 18 -5 30 -20 24 -30 -3 -6 -89 -4 -138 3 -10 2 -21
-3 -24 -11 -3 -9 1 -11 15 -7 28 9 53 -3 53 -23 0 -26 -10 -31 -31 -18 -16 10
-21 9 -29 -3 -5 -8 -10 -11 -10 -6 0 5 -6 4 -12 -2 -7 -5 -26 -9 -43 -8 -16 1
-40 -2 -52 -6 -14 -4 -26 -2 -33 8 -9 10 -9 14 -1 14 6 0 11 5 11 10 0 6 -11
10 -24 10 -14 0 -27 4 -30 9 -8 12 50 3 94 -15 46 -19 27 0 -37 37 -60 36 -33
38 32 3 31 -16 51 -22 58 -15 13 13 -2 34 -20 27 -13 -5 -83 28 -83 40 0 2 10
3 23 1 15 -1 22 3 21 14 -1 11 5 15 16 12 16 -4 17 -1 10 30 -10 48 -17 56
-41 50 -16 -4 -20 -2 -17 8 3 8 13 15 24 17 10 1 36 8 57 14 28 9 43 8 60 -1
18 -10 29 -9 57 3 50 22 117 21 128 -1z m406 8 c3 -5 15 -7 26 -4 14 4 20 0
20 -11 0 -9 -4 -16 -8 -16 -15 0 -62 25 -62 33 0 10 18 9 24 -2z m86 5 c0 -3
-4 -8 -10 -11 -5 -3 -10 -1 -10 4 0 6 5 11 10 11 6 0 10 -2 10 -4z m-845 -56
c3 -5 -1 -10 -10 -10 -9 0 -13 5 -10 10 3 6 8 10 10 10 2 0 7 -4 10 -10z m525
-25 c11 -13 10 -14 -4 -9 -9 3 -16 10 -16 15 0 13 6 11 20 -6z m123 -27 c9
-34 -4 -47 -31 -29 -12 7 -12 12 -1 30 17 27 25 27 32 -1z m-426 6 c-3 -3 -12
-4 -19 -1 -8 3 -5 6 6 6 11 1 17 -2 13 -5z m556 -20 c-18 -8 -40 -11 -50 -7
-15 6 -15 8 7 13 14 4 36 7 50 7 23 0 23 -1 -7 -13z m-532 -5 c11 -5 17 -14
14 -19 -6 -10 -45 9 -45 22 0 11 8 10 31 -3z m329 -10 c0 -5 -9 -9 -20 -9 -19
0 -26 11 -14 23 8 8 34 -3 34 -14z m-3175 2 c10 -17 -12 -21 -25 -6 -10 12
-10 15 3 15 9 0 18 -4 22 -9z m2605 -11 c0 -5 -2 -10 -4 -10 -3 0 -8 5 -11 10
-3 6 -1 10 4 10 6 0 11 -4 11 -10z m484 -5 c6 -17 4 -18 -18 -9 -20 8 -21 24
-2 24 8 0 16 -7 20 -15z m-3184 -2 c0 -5 -5 -15 -10 -23 -8 -12 -10 -11 -10 8
0 12 5 22 10 22 6 0 10 -3 10 -7z m3323 -33 c11 0 17 -8 17 -23 0 -32 -8 -37
-35 -27 -14 5 -26 5 -33 -2 -7 -7 -20 -7 -41 0 -23 8 -30 8 -28 -1 2 -11 -79
-34 -88 -25 -3 3 -3 13 1 22 7 17 19 21 97 31 33 4 47 11 47 22 0 11 6 14 23
9 12 -3 30 -6 40 -6z m296 1 c11 -7 10 -11 -5 -19 -11 -5 -25 -7 -31 -5 -7 3
-31 -3 -53 -13 -32 -14 -37 -20 -25 -27 26 -14 7 -26 -41 -25 -26 0 -49 -4
-53 -9 -3 -6 -16 -13 -29 -17 -31 -10 -17 -26 21 -23 24 1 32 -2 35 -17 2 -11
14 -28 26 -37 18 -16 19 -18 4 -19 -27 0 -21 -27 8 -34 32 -8 96 3 88 16 -3 5
-12 7 -20 4 -18 -7 -18 18 0 33 11 9 15 8 20 -5 4 -11 13 -14 29 -10 16 4 26
-1 36 -17 13 -20 13 -21 -2 -8 -14 11 -20 11 -32 1 -9 -7 -14 -19 -11 -27 3
-7 0 -13 -7 -14 -37 -3 -136 0 -159 4 -20 4 -25 2 -21 -9 4 -10 0 -12 -11 -8
-19 7 -20 16 -4 32 9 9 9 12 0 12 -7 0 -12 -4 -12 -10 0 -17 -28 -11 -49 12
-23 24 -20 38 7 32 11 -4 23 5 35 25 16 27 16 31 3 31 -9 0 -16 -5 -16 -11 0
-6 -9 -9 -20 -6 -11 3 -18 1 -15 -3 17 -28 -97 0 -123 30 -10 11 -12 12 -6 1
5 -11 3 -13 -10 -8 -12 5 -20 -1 -28 -17 -11 -26 -46 -40 -72 -30 -23 9 -20
27 4 21 11 -3 20 -1 20 3 0 5 -9 12 -20 15 -11 3 -20 10 -20 15 0 5 -3 15 -6
24 -5 13 2 16 42 16 27 0 78 5 113 10 42 7 67 7 75 1 12 -11 86 -4 86 8 0 3
-4 13 -9 21 -16 24 -3 29 30 13 18 -9 34 -12 38 -6 3 5 22 15 41 23 19 7 44
20 55 27 22 15 73 17 94 4z m-1304 -21 c3 -5 1 -10 -4 -10 -6 0 -11 5 -11 10
0 6 2 10 4 10 3 0 8 -4 11 -10z m166 -43 c22 -22 38 -41 36 -43 -1 -2 -20 1
-42 6 -27 6 -42 5 -46 -2 -13 -20 -30 3 -24 32 6 27 4 29 -30 36 -48 9 -28 21
26 16 32 -3 50 -13 80 -45z m1169 23 c0 -13 -5 -18 -15 -14 -12 5 -13 10 -4
20 15 19 19 18 19 -6z m-1147 3 c-7 -2 -19 -2 -25 0 -7 3 -2 5 12 5 14 0 19
-2 13 -5z m140 0 c3 -5 -4 -16 -13 -26 -19 -20 -34 -9 -24 17 6 17 30 22 37 9z
m-1105 -74 c-7 -5 -28 -9 -46 -9 -62 0 -117 -20 -135 -48 l-16 -27 6 38 c5 35
4 38 -15 35 -12 -1 -21 0 -22 5 -1 22 2 27 20 37 12 6 62 14 113 16 51 3 94 8
97 11 3 3 6 -7 8 -22 2 -16 -2 -32 -10 -36z m2062 37 c0 -18 -37 -28 -44 -11
-6 17 3 25 26 25 10 0 18 -6 18 -14z m-505 -6 c3 -5 1 -10 -4 -10 -6 0 -11 5
-11 10 0 6 2 10 4 10 3 0 8 -4 11 -10z m-2585 -34 c20 -9 27 -15 17 -16 -18 0
-97 36 -97 45 0 5 23 -3 80 -29z m2055 16 c-3 -3 -11 0 -18 7 -9 10 -8 11 6 5
10 -3 15 -9 12 -12z m417 -12 c7 -11 21 -20 30 -20 23 0 24 -37 1 -42 -10 -2
-34 -2 -54 0 -27 3 -36 8 -32 18 6 16 -8 19 -23 4 -7 -7 -19 -8 -37 -1 -18 7
-28 7 -33 -1 -4 -7 -3 -8 4 -4 7 4 12 3 12 -2 0 -14 -43 -23 -54 -12 -7 7 -6
10 3 10 7 0 10 4 7 9 -7 10 60 25 73 17 5 -3 14 1 21 9 7 8 21 15 31 15 11 0
19 5 19 10 0 17 19 11 32 -10z m473 10 c-3 -5 -12 -10 -18 -10 -7 0 -6 4 3 10
19 12 23 12 15 0z m-827 -16 c18 -8 32 -16 32 -17 0 -1 -27 -3 -59 -4 -45 -1
-61 3 -65 14 -5 12 -1 14 18 9 14 -3 28 -2 31 4 8 13 6 13 43 -6z m70 -6 c2
-10 -2 -18 -9 -18 -7 0 -9 3 -5 7 3 4 -4 13 -16 20 l-23 13 25 -2 c14 -2 26
-10 28 -20z m-1624 -38 l6 -35 -15 30 c-16 34 -20 64 -6 50 5 -6 12 -26 15
-45z m-334 35 c0 -9 -72 -23 -88 -17 -13 5 -10 8 13 13 37 8 75 10 75 4z m511
-9 c-8 -10 -28 -13 -69 -11 -69 4 -64 3 -58 14 3 4 35 9 72 10 57 1 65 0 55
-13z m1209 4 c0 -5 -7 -7 -15 -4 -8 4 -15 8 -15 10 0 2 7 4 15 4 8 0 15 -4 15
-10z m-1660 -21 c0 -5 -7 -9 -15 -9 -15 0 -20 12 -9 23 8 8 24 -1 24 -14z
m2733 -10 c-7 -7 -19 -8 -30 -4 -16 7 -15 9 7 15 30 8 38 4 23 -11z m-1004 -3
c7 -8 24 -17 39 -22 26 -7 26 -7 -13 -15 -22 -4 -59 -8 -82 -8 -39 -1 -43 1
-43 22 0 13 3 27 7 30 12 13 80 7 92 -7z m218 -29 c10 -22 9 -23 -43 -22 -41
0 -53 3 -49 13 3 8 5 17 5 22 0 9 47 18 66 12 6 -2 16 -13 21 -25z m-924 -4
c-24 -9 -13 -25 12 -19 28 7 33 -5 10 -24 -20 -16 -51 -8 -47 13 2 9 -2 17 -8
17 -20 0 -10 19 13 22 25 4 39 -2 20 -9z m1372 -3 c17 -7 14 -9 -13 -9 -20 -1
-31 3 -27 9 7 12 13 12 40 0z m-73 -25 c26 -4 45 -16 63 -39 36 -47 31 -57 -8
-15 -26 28 -44 38 -80 43 -26 4 -47 12 -47 17 0 6 8 8 18 6 9 -3 34 -8 54 -12z
m138 -5 c0 -11 -2 -20 -3 -20 -2 0 -12 9 -22 20 -18 19 -17 20 3 20 15 0 22
-6 22 -20z m-371 1 c19 -13 -4 -24 -32 -15 -12 4 -34 7 -49 6 -16 0 -28 4 -28
9 0 11 90 12 109 0z m-394 -25 c171 -9 208 -62 45 -65 -63 -1 -83 8 -78 35 3
19 0 20 -64 23 -16 1 -28 5 -28 11 0 5 12 7 28 5 15 -3 59 -6 97 -9z m-2325
-15 c0 -11 -3 -27 -6 -36 -5 -13 -9 -11 -20 11 -15 28 -11 44 12 44 8 0 14 -9
14 -19z m130 -1 c0 -5 -4 -10 -9 -10 -6 0 -13 5 -16 10 -3 6 1 10 9 10 9 0 16
-4 16 -10z m3017 -34 c-5 -17 -67 -20 -67 -4 0 9 13 14 35 15 23 0 35 -4 32
-11z"/>
<path d="M4115 458 c10 -34 23 -44 31 -25 9 23 -2 47 -21 47 -12 0 -15 -6 -10
-22z"/>
<path d="M4425 180 c3 -5 8 -10 11 -10 2 0 4 5 4 10 0 6 -5 10 -11 10 -5 0 -7
-4 -4 -10z"/>
<path d="M2995 1240 c28 -12 37 -12 30 0 -3 6 -16 10 -28 9 -21 0 -21 -1 -2
-9z"/>
<path d="M4835 1230 c3 -5 8 -10 11 -10 2 0 4 5 4 10 0 6 -5 10 -11 10 -5 0
-7 -4 -4 -10z"/>
<path d="M2856 1221 c-18 -7 -18 -8 -2 -14 16 -6 56 7 56 18 0 7 -32 5 -54 -4z"/>
<path d="M3208 1163 c7 -3 16 -2 19 1 4 3 -2 6 -13 5 -11 0 -14 -3 -6 -6z"/>
<path d="M3400 1105 c7 -8 22 -15 34 -15 20 1 20 2 -4 15 -33 19 -46 19 -30 0z"/>
<path d="M4080 1113 c-49 -9 -54 -24 -18 -54 18 -16 38 -28 45 -29 14 0 34 56
27 75 -6 15 -10 16 -54 8z"/>
<path d="M3787 1090 c-3 -13 0 -20 9 -20 8 0 14 9 14 20 0 11 -4 20 -9 20 -5
0 -11 -9 -14 -20z"/>
<path d="M3525 1060 c3 -5 11 -10 16 -10 6 0 7 5 4 10 -3 6 -11 10 -16 10 -6
0 -7 -4 -4 -10z"/>
<path d="M3855 1061 c-8 -13 12 -23 49 -26 17 -1 49 -14 70 -28 21 -15 43 -27
48 -27 5 0 18 -19 28 -42 16 -36 20 -39 20 -18 0 37 -34 104 -65 128 -21 17
-41 22 -86 22 -32 0 -60 -4 -64 -9z"/>
<path d="M3820 940 c0 -5 7 -10 16 -10 8 0 12 5 9 10 -3 6 -10 10 -16 10 -5 0
-9 -4 -9 -10z"/>
<path d="M3769 683 c-12 -14 -12 -15 0 -9 8 5 16 3 22 -5 4 -7 12 -10 16 -5 4
5 2 11 -5 13 -6 3 -10 9 -6 14 10 16 -13 10 -27 -8z"/>
<path d="M1440 665 c0 -12 41 -65 50 -65 9 0 24 50 16 57 -7 8 -66 15 -66 8z"/>
<path d="M3985 650 c3 -5 10 -10 16 -10 5 0 9 5 9 10 0 6 -7 10 -16 10 -8 0
-12 -4 -9 -10z"/>
<path d="M1430 579 c0 -5 -4 -7 -10 -4 -5 3 -10 -1 -10 -10 0 -9 5 -13 10 -10
6 3 10 -1 10 -9 0 -8 -5 -18 -10 -21 -20 -12 -1 -21 34 -17 32 4 36 7 36 33 0
22 -6 32 -26 39 -32 12 -34 12 -34 -1z"/>
<path d="M1460 445 c-11 -13 -10 -22 3 -50 21 -44 37 -45 37 -1 0 61 -15 81
-40 51z"/>
<path d="M3503 334 c-37 -28 -42 -53 -14 -61 10 -3 24 -21 31 -44 7 -21 17
-39 23 -39 5 0 7 7 3 15 -3 9 0 15 9 15 8 0 15 9 15 20 0 31 -21 120 -28 120
-4 0 -22 -12 -39 -26z"/>
<path d="M1044 255 c61 -31 65 -31 36 0 -15 16 -34 25 -54 25 -30 0 -29 -1 18
-25z"/>
<path d="M4110 60 c0 -5 5 -10 10 -10 6 0 10 5 10 10 0 6 -4 10 -10 10 -5 0
-10 -4 -10 -10z"/>
<path d="M2552 14 c10 -10 20 -16 22 -13 3 3 -5 11 -17 18 -21 13 -21 12 -5
-5z"/>
<path d="M4368 3 c7 -3 16 -2 19 1 4 3 -2 6 -13 5 -11 0 -14 -3 -6 -6z"/>
</g>
</svg>
